<svg width="44" height="44" viewBox="0 0 44 44" fill="none" xmlns="http://www.w3.org/2000/svg">
<path d="M29.2964 0C30.0114 0.201667 30.7081 0.476667 31.2214 1.045C31.8631 1.74167 32.1381 2.585 32.1381 3.52C32.1381 6.85667 32.1381 10.1933 32.1381 13.53C32.1381 13.695 32.1381 13.86 32.1381 14.0617C32.2848 14.08 32.4131 14.08 32.5414 14.08C33.3664 14.08 34.1731 14.08 34.9981 14.08C35.7681 14.08 36.0981 14.41 36.0981 15.18C36.0981 19.6533 36.1164 24.1083 36.0981 28.5817C36.0798 31.79 33.6964 34.1917 30.5064 34.3017C30.0664 34.32 29.6264 34.32 29.1681 34.3017C28.8931 34.2833 28.8198 34.3933 28.8198 34.65C28.8381 35.475 28.8198 36.3183 28.8198 37.1433C28.8198 37.9683 28.5264 38.2617 27.7014 38.2617C26.8398 38.2617 25.9964 38.2617 25.0798 38.2617C25.0798 38.8117 25.0798 39.3067 25.0798 39.8017C25.0798 40.81 25.0798 41.8367 25.0798 42.845C25.0798 43.67 24.7498 43.9817 23.9248 43.9817C22.6414 43.9817 21.3398 43.9817 20.0564 43.9817C19.2314 43.9817 18.9014 43.67 18.9014 42.845C18.9014 41.3417 18.9014 39.8383 18.9014 38.28C18.7364 38.2617 18.5898 38.2617 18.4248 38.2617C17.6731 38.2617 16.9031 38.28 16.1514 38.2617C15.4914 38.2433 15.1798 37.9317 15.1798 37.2717C15.1614 36.4283 15.1614 35.585 15.1798 34.7417C15.1798 34.4117 15.1064 34.3017 14.7581 34.3017C13.7681 34.32 12.7781 34.3567 11.8248 34.0267C9.45977 33.22 7.9381 31.13 7.91977 28.5817C7.90144 27.005 7.91977 25.4283 7.91977 23.8517C7.91977 21.01 7.91977 18.15 7.91977 15.3083C7.91977 14.355 8.19477 14.08 9.1481 14.08C10.0281 14.08 10.9264 14.08 11.8614 14.08C11.8614 13.8967 11.8614 13.7317 11.8614 13.5667C11.8614 10.395 11.9164 7.205 11.8431 4.03333C11.8064 2.16333 12.4481 0.568333 14.7031 0C14.9964 0 15.2714 0 15.5648 0C16.0781 0.22 16.6648 0.366667 17.1231 0.678333C18.1131 1.35667 18.4798 2.365 18.4798 3.53833C18.4798 6.875 18.4798 10.2117 18.4798 13.5483C18.4798 13.7133 18.4798 13.8783 18.4798 14.08C20.8448 14.08 23.1731 14.08 25.5564 14.08C25.5564 13.8967 25.5564 13.7317 25.5564 13.5483C25.5564 10.23 25.5564 6.91167 25.5564 3.59333C25.5564 2.64 25.7948 1.79667 26.4548 1.08167C27.0048 0.495 27.7014 0.201667 28.4714 0.0183333C28.7281 0 29.0214 0 29.2964 0ZM9.71644 18.205C9.93644 18.205 10.1014 18.205 10.2664 18.205C14.0248 18.205 17.8014 18.205 21.5598 18.205C21.7431 18.205 21.9264 18.205 22.1098 18.2233C22.5314 18.2783 22.8248 18.6267 22.8431 19.0483C22.8614 19.4883 22.5681 19.855 22.1281 19.9283C21.9631 19.965 21.7798 19.9467 21.6148 19.9467C17.8014 19.9467 13.9881 19.9467 10.1931 19.9467C10.0281 19.9467 9.8631 19.9467 9.6981 19.9467C9.6981 20.0933 9.67977 20.1667 9.67977 20.24C9.67977 23.0267 9.66144 25.795 9.67977 28.5817C9.6981 30.9467 11.3848 32.5783 13.7681 32.5783C19.2498 32.5783 24.7314 32.5783 30.2314 32.5783C30.6164 32.5783 31.0014 32.5417 31.3681 32.4317C33.2381 31.9 34.3014 30.47 34.3014 28.4533C34.3014 25.7767 34.3014 23.1 34.3014 20.4233C34.3014 20.2767 34.2831 20.1483 34.2648 19.9833C34.0814 19.9833 33.9164 19.9833 33.7698 19.9833C32.3581 19.9833 30.9648 19.9833 29.5531 19.9833C28.8748 19.9833 28.4898 19.5617 28.5814 18.9567C28.6548 18.4983 28.9848 18.2417 29.5531 18.2417C30.9648 18.2417 32.3948 18.2417 33.8064 18.2417C33.9531 18.2417 34.0998 18.2233 34.2464 18.2233C34.2464 17.4167 34.2464 16.665 34.2464 15.895C26.0514 15.895 17.8748 15.895 9.67977 15.895C9.71644 16.6283 9.71644 17.38 9.71644 18.205ZM16.6831 14.0617C16.6831 13.8783 16.6831 13.695 16.6831 13.53C16.6831 10.23 16.6831 6.94833 16.6831 3.64833C16.6831 3.48333 16.6831 3.3 16.6648 3.135C16.6098 2.42 16.0598 1.85167 15.3448 1.77833C14.3364 1.66833 13.6214 2.38333 13.6214 3.53833C13.6214 6.91167 13.6214 10.285 13.6214 13.6767C13.6214 13.805 13.6398 13.9517 13.6581 14.08C14.6848 14.0617 15.6564 14.0617 16.6831 14.0617ZM30.3598 14.0617C30.3598 13.8967 30.3781 13.7683 30.3781 13.6217C30.3781 10.2667 30.3781 6.93 30.3781 3.575C30.3781 3.39167 30.3598 3.20833 30.3414 3.025C30.2314 2.38333 29.7181 1.88833 29.0764 1.79667C28.0681 1.65 27.3164 2.34667 27.3164 3.44667C27.3164 6.875 27.3164 10.285 27.3164 13.7133C27.3164 13.8233 27.3348 13.9333 27.3348 14.0617C28.3431 14.0617 29.3148 14.0617 30.3598 14.0617ZM16.9398 36.4833C20.3314 36.4833 23.6864 36.4833 27.0231 36.4833C27.0231 35.75 27.0231 35.0533 27.0231 34.3567C23.6498 34.3567 20.2948 34.3567 16.9398 34.3567C16.9398 35.0717 16.9398 35.7683 16.9398 36.4833ZM23.2831 38.3167C22.4031 38.3167 21.5598 38.3167 20.6981 38.3167C20.6981 39.6367 20.6981 40.92 20.6981 42.2217C21.5781 42.2217 22.4214 42.2217 23.2831 42.2217C23.2831 40.8833 23.2831 39.6 23.2831 38.3167Z" fill="black"/>
<path d="M25.7765 19.9465C25.2081 19.9465 24.8231 19.6165 24.8048 19.1032C24.7865 18.5715 25.1898 18.2048 25.7765 18.2048C26.3631 18.2048 26.7665 18.5715 26.7481 19.1032C26.7481 19.5982 26.3631 19.9465 25.7765 19.9465Z" fill="black"/>
</svg>
