<svg width="45" height="44" viewBox="0 0 45 44" fill="none" xmlns="http://www.w3.org/2000/svg">
<g clip-path="url(#clip0_213_101)">
<path d="M15.1 24.8417C14.6046 23.595 14.1459 22.3667 13.6506 21.1567C13.5955 21.0283 13.4671 20.9183 13.357 20.845C12.6047 20.24 11.8708 19.635 11.1002 19.0483C10.2195 18.3333 9.76086 17.435 10.0177 16.28C10.2746 15.1433 11.0268 14.4833 12.1644 14.245C12.2011 14.245 12.2378 14.2083 12.3295 14.19C12.2745 14.0433 12.2011 13.8967 12.1461 13.7683C11.614 12.7233 11.1002 11.6967 10.5865 10.67C10.1462 9.79001 10.0911 8.89168 10.403 7.97501C10.7883 6.80168 10.3296 5.86668 9.15538 5.46334C8.65999 5.29834 8.14626 5.17001 7.68757 4.95001C7.44905 4.84001 7.17383 4.58334 7.13714 4.36334C7.11879 4.12501 7.32062 3.77668 7.52244 3.64834C10.5131 1.76001 13.779 0.495009 17.3017 0.238343C20.4208 9.26077e-06 23.5766 -0.0366574 26.6958 0.0733426C31.4294 0.238343 34.677 5.04168 33.2275 9.57001C32.7872 10.9817 32.2367 12.3383 31.7414 13.7317C31.6863 13.8783 31.6496 14.0067 31.5946 14.19C31.7414 14.2267 31.8881 14.2633 32.0166 14.3C33.0257 14.5017 33.7046 15.1433 33.9798 16.1333C34.2733 17.16 33.9798 18.0767 33.1908 18.7733C32.3652 19.4883 31.4845 20.1483 30.6405 20.845C30.5304 20.9367 30.402 21.0833 30.3469 21.2117C29.8699 22.4033 29.4112 23.595 28.9342 24.805C29.0259 24.805 29.1727 24.8233 29.3378 24.8233C31.0992 24.8233 32.8606 24.8233 34.6219 24.8233C36.842 24.8233 38.3465 26.345 38.3465 28.5633C38.3465 29.3517 38.3282 30.1217 38.3649 30.91C38.3649 31.0567 38.4933 31.2583 38.6217 31.3317C41.539 32.7617 43.3187 35.0533 43.8875 38.2433C44.0526 39.215 43.9976 40.2417 44.0343 41.25C44.0526 41.8917 44.0526 42.5517 44.0343 43.1933C44.0343 43.725 43.7591 43.9817 43.2453 43.9817C43.1353 43.9817 43.0435 43.9817 42.9334 43.9817C28.9892 44 15.045 44 1.1191 44C0.183373 44 -0.000103508 43.835 -0.000103508 42.9C0.0182442 41.4883 -0.0734942 40.0583 0.0916348 38.6467C0.476936 35.3467 2.23831 32.9633 5.19229 31.46C5.54089 31.2767 5.68767 31.1117 5.66933 30.7083C5.65098 29.7367 5.59594 28.7467 5.74272 27.7933C5.98124 26.0517 7.44905 24.86 9.21043 24.8417C11.192 24.8417 13.1735 24.8417 15.1 24.8417ZM36.9337 42.57C36.9337 42.3867 36.9337 42.24 36.9337 42.0933C36.9337 37.6017 36.9337 33.11 36.9337 28.6183C36.9337 27.115 36.0714 26.2717 34.5669 26.2717C26.2187 26.2717 17.8522 26.2717 9.50399 26.2717C7.96278 26.2717 7.11879 27.115 7.11879 28.655C7.11879 33.1283 7.11879 37.6017 7.11879 42.075C7.11879 42.24 7.11879 42.3867 7.11879 42.57C17.0632 42.57 26.9526 42.57 36.9337 42.57ZM31.2276 10.9083C31.4111 10.3767 31.6129 9.86334 31.7964 9.33168C33.1358 5.42668 30.3286 1.46668 26.182 1.43001C24.1271 1.41168 22.0721 1.41168 20.0172 1.43001C17.0265 1.44834 14.1459 2.05334 11.3938 3.20834C10.7883 3.46501 10.2195 3.75834 9.59573 4.05168C9.68746 4.12501 9.70581 4.16168 9.72416 4.16168C11.3204 4.63834 12.4763 6.54501 11.7241 8.50668C11.614 8.85501 11.5773 9.31334 11.7057 9.62501C12.0727 10.5233 12.5314 11.385 12.9533 12.2833C14.5679 11.2017 16.1458 10.1567 17.7237 9.11168C18.9347 8.30501 20.2557 7.84668 21.7052 7.82834C23.2097 7.81001 24.5491 7.33334 25.705 6.38001C26.2004 5.97668 26.6958 5.57334 27.1911 5.18834C27.5948 4.87668 28.0168 4.91334 28.2737 5.31668C29.4296 7.07668 30.879 8.69001 31.2276 10.9083ZM14.2193 15.6383C14.2193 15.8033 14.2193 15.9317 14.2193 16.0783C14.3661 19.085 15.1551 21.89 16.6412 24.5117C16.788 24.7867 16.9715 24.86 17.2651 24.86C20.4208 24.8417 23.595 24.8417 26.7508 24.86C27.0444 24.86 27.2278 24.7867 27.3746 24.5117C28.659 22.2383 29.4296 19.8183 29.7048 17.2333C29.7598 16.72 29.7782 16.1883 29.8149 15.675C29.3011 15.675 28.8608 15.675 28.4021 15.675C28.4021 16.39 28.4204 17.0867 28.4021 17.7833C28.3837 18.975 27.4847 19.8917 26.2921 19.91C25.7967 19.9283 25.3197 19.9283 24.8243 19.91C23.6317 19.8733 22.751 18.975 22.7143 17.7833C22.7143 17.5633 22.7143 17.325 22.7143 17.105C22.2006 17.105 21.7602 17.105 21.3015 17.105C21.3015 17.3433 21.3015 17.5633 21.3015 17.7833C21.2832 18.9933 20.3658 19.8917 19.1549 19.91C18.7696 19.91 18.3843 19.91 17.999 19.91C16.4761 19.91 15.6138 19.0483 15.6138 17.5083C15.6138 16.9033 15.6138 16.28 15.6138 15.6567C15.1367 15.6383 14.7147 15.6383 14.2193 15.6383ZM22.7143 15.6017C22.7143 15.4733 22.7327 15.4 22.7327 15.3083C22.751 14.355 22.8978 14.2083 23.8519 14.2083C25.6866 14.2083 27.5214 14.2083 29.3562 14.2083C29.5029 14.2083 29.6681 14.2083 29.7598 14.2083C30.2185 11.33 29.4112 8.89168 27.503 6.78334C27.2462 6.98501 26.971 7.20501 26.6958 7.42501C25.2463 8.63501 23.5766 9.24001 21.6868 9.25834C20.5493 9.25834 19.5218 9.64334 18.5677 10.285C17.3017 11.11 16.0541 11.935 14.7881 12.7783C14.1459 13.2183 14.0726 13.4017 14.2744 14.2083C14.4212 14.2083 14.5679 14.2083 14.7147 14.2083C16.6229 14.2083 18.531 14.2083 20.4392 14.2083C21.0447 14.2083 21.3015 14.465 21.3015 15.07C21.3015 15.235 21.3015 15.4183 21.3015 15.6017C21.7786 15.6017 22.2189 15.6017 22.7143 15.6017ZM5.66933 32.7617C5.15559 33.11 4.6969 33.385 4.2749 33.7333C1.41267 36.0617 1.21084 39.2333 1.48606 42.5517C2.88048 42.5517 4.2749 42.5517 5.66933 42.5517C5.66933 39.3067 5.66933 36.08 5.66933 32.7617ZM38.3832 32.7983C38.3832 36.0983 38.3832 39.325 38.3832 42.5517C39.796 42.5517 41.1904 42.5517 42.6949 42.5517C42.6032 41.03 42.6582 39.5083 42.383 38.0417C41.9427 35.7133 40.5115 33.99 38.3832 32.7983ZM17.0449 15.6383C17.0449 16.3717 17.0265 17.05 17.0449 17.7283C17.0449 18.15 17.3017 18.4433 17.7237 18.4617C18.2191 18.48 18.7329 18.48 19.2283 18.4617C19.5769 18.4433 19.8337 18.2233 19.8521 17.8933C19.8888 17.16 19.8704 16.4083 19.8704 15.6567C18.9163 15.6383 17.999 15.6383 17.0449 15.6383ZM24.1454 15.6383C24.1454 16.3717 24.1271 17.05 24.1454 17.7283C24.1454 18.15 24.4023 18.4433 24.8243 18.4617C25.3197 18.48 25.8334 18.48 26.3288 18.4617C26.6774 18.4433 26.9343 18.2233 26.9526 17.8933C26.9893 17.16 26.971 16.4083 26.971 15.6567C26.0169 15.6383 25.0995 15.6383 24.1454 15.6383ZM13.0451 18.755C12.9533 17.655 12.8433 16.6467 12.7515 15.6383C12.1094 15.62 11.669 15.8583 11.4672 16.3717C11.247 16.885 11.3938 17.3983 11.8525 17.8017C12.2194 18.1133 12.6047 18.4067 13.0451 18.755ZM30.9708 18.7733C31.4661 18.37 31.9248 18.0217 32.3468 17.6367C32.7138 17.2883 32.7505 16.7383 32.512 16.28C32.2734 15.8217 31.8331 15.6017 31.2643 15.675C31.1726 16.665 31.0808 17.6733 30.9708 18.7733Z" fill="black"/>
<path d="M18.2924 36.7217C17.9071 37.1067 17.5952 37.4183 17.2466 37.7667C16.6228 37.125 15.999 36.5017 15.3751 35.8783C15.0816 35.5667 14.7697 35.2733 14.4761 34.9617C14.1458 34.6133 14.1092 34.2467 14.4211 33.935C15.3568 32.9817 16.2925 32.065 17.2649 31.1117C17.5769 31.46 17.8888 31.79 18.2007 32.1383C17.4851 32.8533 16.7145 33.605 15.9439 34.375C16.7329 35.1817 17.5035 35.9333 18.2924 36.7217Z" fill="black"/>
<path d="M26.7875 37.7667C26.4389 37.4183 26.127 37.1067 25.8151 36.795C26.5857 36.0433 27.3379 35.2733 28.1269 34.5033C27.3013 33.6783 26.5306 32.9267 25.7417 32.1383C26.127 31.7717 26.4389 31.4783 26.8793 31.0383C27.0811 31.295 27.2829 31.5883 27.5214 31.8267C28.1819 32.505 28.8608 33.165 29.5213 33.8433C29.8883 34.2283 29.925 34.595 29.5947 34.9433C28.6957 35.8783 27.7416 36.8133 26.7875 37.7667Z" fill="black"/>
<path d="M23.5765 31.185C23.9801 31.4783 24.3287 31.7533 24.714 32.0283C23.2829 33.9167 21.8885 35.805 20.4574 37.6933C20.0721 37.4 19.7235 37.1433 19.3198 36.85C20.7326 34.9617 22.1454 33.0917 23.5765 31.185Z" fill="black"/>
</g>
<defs>
<clipPath id="clip0_213_101">
<rect width="44.0344" height="44" fill="white"/>
</clipPath>
</defs>
</svg>
