<svg width="44" height="44" viewBox="0 0 44 44" fill="none" xmlns="http://www.w3.org/2000/svg">
<g clip-path="url(#clip0_213_429)">
<path d="M21.2668 22.0184C20.2585 22.0184 19.3235 22.0184 18.3335 22.0184C18.3335 22.2017 18.3335 22.3667 18.3335 22.5317C18.3335 25.2084 18.3335 27.8667 18.3335 30.5434C18.3335 32.1017 17.4535 33.0001 15.8951 33.0001C14.0435 33.0001 12.1918 33.0001 10.2851 33.0001C10.2851 33.1651 10.2851 33.3301 10.2851 33.4951C10.2851 35.4567 10.2851 37.4367 10.2851 39.3984C10.2851 40.8834 9.36846 41.7817 7.88346 41.8001C7.33346 41.8001 6.78346 41.8184 6.23346 41.8001C5.92179 41.7817 5.75679 41.8734 5.62846 42.1851C5.06012 43.5967 3.53846 44.3117 2.09012 43.8717C0.696789 43.4501 -0.201544 42.0201 0.0367893 40.6084C0.293456 39.1051 1.63179 38.0234 3.13512 38.1517C4.30846 38.2434 5.17012 38.8667 5.62846 39.9667C5.75679 40.2784 5.92179 40.3334 6.23346 40.3334C6.82012 40.3151 7.42512 40.3334 8.01179 40.3334C8.48846 40.3151 8.80012 40.0584 8.80012 39.6184C8.81846 37.4367 8.80012 35.2551 8.80012 33.0184C8.32346 33.0184 7.86512 33.0001 7.42512 33.0367C7.31512 33.0551 7.16846 33.2567 7.11346 33.4034C6.60012 34.5951 5.42679 35.3101 4.14346 35.2184C2.89679 35.1084 1.85179 34.2101 1.54012 32.9817C1.19179 31.5151 1.98012 30.0301 3.41012 29.5351C4.84012 29.0217 6.45346 29.6817 7.04012 31.0934C7.20512 31.4967 7.40679 31.6067 7.81012 31.5701C8.10346 31.5334 8.41512 31.5701 8.76346 31.5701C8.76346 28.3984 8.76346 25.2451 8.76346 22.0367C8.01179 22.0367 7.26012 22.0551 6.50846 22.0367C4.41846 21.9817 2.69512 21.1384 1.41179 19.4884C-1.70488 15.4734 0.678456 9.62508 5.72012 8.92841C6.01346 8.89175 6.10512 8.78175 6.19679 8.48841C7.48012 3.85008 10.4868 0.971746 15.2351 0.201746C19.1585 -0.43992 22.5135 0.898413 25.1901 3.85008C25.2818 3.96008 25.3918 4.07008 25.4835 4.18008C29.6635 1.30175 35.2185 3.81341 35.8968 8.83675C36.3918 8.83675 36.9051 8.81841 37.4185 8.83675C39.9118 8.91008 41.8551 10.0101 43.1018 12.1734C45.6135 16.5001 42.4785 21.9634 37.4735 22.0184C36.7218 22.0367 35.9885 22.0184 35.2001 22.0184C35.2001 25.6851 35.2001 29.3334 35.2001 33.0184C35.6585 33.0184 36.0985 33.0367 36.5201 33.0001C36.6485 32.9817 36.7768 32.7984 36.8501 32.6517C37.6018 30.8734 39.7285 30.2501 41.2868 31.3684C42.2951 32.1017 42.7351 33.3851 42.3868 34.5767C42.0568 35.7134 41.0118 36.5751 39.8201 36.6667C38.5735 36.7584 37.3818 36.0801 36.9235 34.9251C36.7585 34.5401 36.5568 34.4301 36.1901 34.4667C35.8785 34.5034 35.5485 34.4667 35.1818 34.4667C35.1818 34.7051 35.1818 34.9067 35.1818 35.1267C35.1818 36.5567 35.1818 38.0051 35.1818 39.4351C35.1818 40.0584 35.4385 40.3334 36.0618 40.3334C36.7585 40.3334 37.4735 40.3334 38.1885 40.3334C38.2618 40.1867 38.3168 40.0401 38.3718 39.9117C38.9218 38.6467 40.2785 37.9317 41.5801 38.1884C42.9918 38.4817 43.9635 39.6367 43.9818 41.0301C44.0001 42.4051 43.0285 43.6334 41.6901 43.9084C40.2968 44.2017 38.9218 43.5234 38.3901 42.2401C38.2435 41.8734 38.0418 41.7817 37.6935 41.8001C37.1068 41.8184 36.5018 41.8184 35.9151 41.8001C34.6868 41.7817 33.7518 40.8284 33.7335 39.6001C33.7151 38.0784 33.7335 36.5384 33.7335 35.0167C33.7335 34.8517 33.7335 34.6867 33.7335 34.4667C33.5318 34.4667 33.3851 34.4667 33.2201 34.4667C31.4968 34.4667 29.7735 34.4667 28.0501 34.4667C26.6018 34.4667 25.6851 33.5501 25.6851 32.0834C25.6851 28.9117 25.6851 25.7401 25.6851 22.5501C25.6851 22.3851 25.6851 22.2201 25.6851 22.0184C24.6951 22.0184 23.7418 22.0184 22.7518 22.0184C22.7518 22.1834 22.7518 22.3301 22.7518 22.4767C22.7518 27.5551 22.7518 32.6517 22.7518 37.7301C22.7518 38.0601 22.8251 38.2251 23.1551 38.3717C24.4568 38.8851 25.1718 40.2601 24.8968 41.5984C24.6035 43.0284 23.4301 43.9817 22.0001 43.9817C20.5885 43.9817 19.4335 43.0101 19.1401 41.6167C18.8651 40.2784 19.5801 38.9034 20.8635 38.3901C21.1935 38.2617 21.2851 38.1151 21.2851 37.7667C21.2668 32.6884 21.2851 27.5917 21.2851 22.5134C21.2668 22.3484 21.2668 22.2017 21.2668 22.0184ZM11.1101 12.9067C10.9818 12.7234 10.8901 12.5767 10.7985 12.4484C9.51512 10.6151 7.16846 9.82675 5.04179 10.5234C2.69512 11.2934 1.15512 13.6951 1.50346 16.0234C1.92512 18.7367 3.97846 20.5334 6.71012 20.5334C16.8851 20.5334 27.0785 20.5334 37.2535 20.5334C37.8035 20.5334 38.3901 20.4417 38.9218 20.2951C41.5801 19.4884 43.1018 16.6834 42.2951 14.0067C41.4151 11.0734 38.8118 9.91841 35.9335 10.3401C35.6768 11.1467 35.4201 11.9351 35.1451 12.7784C34.6318 12.4851 34.2285 12.2651 33.8251 12.0267C35.2551 9.05675 33.8985 6.45341 32.1568 5.29841C30.1585 3.96008 27.6101 4.30841 26.3268 5.44508C27.1518 6.91175 27.7018 8.47008 27.7935 10.2117C27.5185 10.2301 27.2985 10.2484 27.0785 10.2667C26.8585 10.2851 26.6201 10.2851 26.3635 10.3034C26.1068 7.68175 25.0251 5.48175 23.0451 3.77675C21.0468 2.07175 18.7001 1.30175 16.0968 1.52175C11.9168 1.87008 7.99346 5.29841 7.62679 8.87341C9.68012 9.27675 11.2751 10.3401 12.3751 12.2101C11.9351 12.4484 11.5501 12.6684 11.1101 12.9067ZM27.1701 22.0184C27.1518 22.1101 27.1518 22.1651 27.1518 22.2201C27.1518 25.5384 27.1518 28.8384 27.1518 32.1567C27.1518 32.7251 27.4268 33.0001 28.0135 33.0001C29.7368 33.0001 31.4601 33.0001 33.1835 33.0001C33.3668 33.0001 33.5318 33.0001 33.7151 33.0001C33.7151 29.2967 33.7151 25.6667 33.7151 22.0184C31.5151 22.0184 29.3518 22.0184 27.1701 22.0184ZM10.3035 31.5334C10.4685 31.5334 10.5968 31.5334 10.7435 31.5334C12.4485 31.5334 14.1718 31.5334 15.8768 31.5334C16.6468 31.5334 16.8851 31.2951 16.8851 30.5251C16.8851 27.8301 16.8851 25.1534 16.8851 22.4584C16.8851 22.3117 16.8668 22.1651 16.8668 22.0184C14.6668 22.0184 12.5035 22.0184 10.3218 22.0184C10.3035 25.1901 10.3035 28.3251 10.3035 31.5334ZM4.43679 33.7334C5.22512 33.7334 5.88512 33.0551 5.88512 32.2667C5.88512 31.4601 5.22512 30.8184 4.41846 30.8184C3.61179 30.8184 2.93346 31.4967 2.95179 32.3034C2.97012 33.0917 3.63012 33.7334 4.43679 33.7334ZM4.41846 41.0484C4.40012 40.2417 3.75846 39.6001 2.95179 39.6001C2.14512 39.6001 1.46679 40.2784 1.48512 41.1034C1.50346 41.8917 2.18179 42.5334 2.97012 42.5334C3.75846 42.5151 4.41846 41.8367 4.41846 41.0484ZM22.0001 42.5151C22.8068 42.5151 23.4668 41.8734 23.4668 41.0667C23.4851 40.2784 22.8251 39.6001 22.0368 39.5817C21.2118 39.5634 20.5518 40.2417 20.5518 41.0484C20.5518 41.8551 21.1935 42.5151 22.0001 42.5151ZM42.5151 41.0484C42.5151 40.2417 41.8551 39.6001 41.0668 39.5817C40.2601 39.5817 39.5818 40.2601 39.6001 41.0667C39.6185 41.8734 40.2785 42.5151 41.0851 42.4967C41.8735 42.5151 42.5335 41.8367 42.5151 41.0484ZM41.0485 33.7151C41.0485 32.9084 40.3885 32.2667 39.5818 32.2667C38.7935 32.2667 38.1151 32.9267 38.1151 33.7151C38.1151 34.5401 38.7935 35.2001 39.6001 35.1817C40.4251 35.1817 41.0668 34.5217 41.0485 33.7151Z" fill="black"/>
<path d="M16.6104 16.8851C15.7854 16.8851 15.0154 16.8851 14.1904 16.8851C14.0987 17.6367 14.007 18.3701 13.9154 19.1401C13.4387 19.0851 12.9804 19.0301 12.4854 18.9751C12.6137 17.7834 12.742 16.6284 12.8704 15.4917C12.9804 14.5201 13.0904 13.5484 13.2004 12.5767C13.2737 11.9534 13.4937 11.7517 14.0987 11.7334C14.997 11.7334 15.8954 11.7334 16.7937 11.7334C17.2704 11.7334 17.5454 11.9717 17.6004 12.4484C17.8387 14.5934 18.077 16.7567 18.3337 18.9751C17.8754 19.0301 17.417 19.0851 16.9037 19.1584C16.7937 18.4067 16.7204 17.6551 16.6104 16.8851ZM16.207 13.2367C15.657 13.2367 15.1254 13.2367 14.5937 13.2367C14.5204 13.9701 14.447 14.6484 14.3554 15.3634C15.0704 15.3634 15.7487 15.3634 16.4454 15.3634C16.372 14.6301 16.2987 13.9334 16.207 13.2367Z" fill="black"/>
<path d="M21.2667 16.1334C21.2667 17.1417 21.2667 18.0767 21.2667 19.0484C20.79 19.0484 20.3317 19.0484 19.8367 19.0484C19.8367 18.92 19.8184 18.7917 19.8184 18.6634C19.8184 16.6834 19.8184 14.7034 19.8184 12.705C19.8184 11.99 20.0567 11.7517 20.7717 11.7517C22.0917 11.7517 23.43 11.7517 24.75 11.7517C25.41 11.7517 25.6667 12.0084 25.6667 12.6684C25.6667 13.53 25.6667 14.41 25.6667 15.2717C25.6667 15.8767 25.3917 16.1334 24.805 16.1334C23.6317 16.1334 22.4767 16.1334 21.2667 16.1334ZM24.2 13.2367C23.21 13.2367 22.2567 13.2367 21.3034 13.2367C21.3034 13.7317 21.3034 14.19 21.3034 14.63C22.2934 14.63 23.2284 14.63 24.2 14.63C24.2 14.1534 24.2 13.7134 24.2 13.2367Z" fill="black"/>
<path d="M6.59974 11.7517C6.59974 12.2467 6.59974 12.705 6.59974 13.1634C6.41641 13.2 6.23308 13.2367 6.06808 13.2917C5.00474 13.5667 4.32641 14.5567 4.41808 15.6384C4.52808 16.7017 5.44474 17.5817 6.52641 17.6C7.91974 17.6184 9.31308 17.6 10.6881 17.6C10.7797 17.6 10.8714 17.6 10.9631 17.6184C10.9631 18.095 10.9631 18.5534 10.9631 19.0667C10.7797 19.0667 10.6147 19.0667 10.4314 19.0667C9.11141 19.0667 7.80974 19.085 6.48974 19.0667C4.56474 19.03 2.98808 17.4717 2.91474 15.5834C2.87808 13.6034 4.32641 11.935 6.26974 11.7517C6.36141 11.7517 6.45308 11.7517 6.59974 11.7517Z" fill="black"/>
<path d="M31.5149 17.5817C31.5149 18.1134 31.5149 18.5717 31.5149 19.0484C30.0666 19.0484 28.6366 19.0484 27.1699 19.0484C27.1699 18.59 27.1699 18.1317 27.1699 17.6184C27.6283 17.6184 28.0866 17.6184 28.5816 17.6184C28.5816 16.1334 28.5816 14.7034 28.5816 13.2367C28.1233 13.2367 27.6649 13.2367 27.1699 13.2367C27.1699 12.7234 27.1699 12.265 27.1699 11.77C28.5999 11.77 30.0299 11.77 31.4966 11.77C31.4966 12.2284 31.4966 12.6867 31.4966 13.2C31.0383 13.2 30.5799 13.2 30.0849 13.2C30.0849 14.685 30.0849 16.115 30.0849 17.5817C30.5433 17.5817 31.0016 17.5817 31.5149 17.5817Z" fill="black"/>
</g>
<defs>
<clipPath id="clip0_213_429">
<rect width="44" height="44" fill="white"/>
</clipPath>
</defs>
</svg>
