<svg width="44" height="44" viewBox="0 0 44 44" fill="none" xmlns="http://www.w3.org/2000/svg">
<g clip-path="url(#clip0_213_411)">
<path d="M44 21.5783C43.7983 22.4767 43.5967 23.3567 43.0833 24.145C41.8733 25.9967 40.1867 27.0233 37.9867 27.0783C35.805 27.1333 33.6417 27.0967 31.46 27.0967C31.3133 27.0967 31.1483 27.0967 30.9283 27.0967C30.9283 27.2983 30.9283 27.4817 30.9283 27.665C30.9283 32.2117 30.9283 36.74 30.9283 41.2867C30.9283 42.3683 30.5617 43.2667 29.535 43.7433C29.1317 43.9267 28.655 44.0183 28.215 44.0183C24.0717 44 19.9283 44 15.785 44C14.0983 44 13.09 42.9733 13.09 41.25C13.09 36.7217 13.09 32.1933 13.09 27.6833C13.09 27.5 13.09 27.3167 13.09 27.0783C12.8883 27.0783 12.7417 27.0783 12.5767 27.0783C11.11 27.0783 9.625 27.0967 8.15833 27.06C4.03333 26.9683 0.696667 24.0167 0.0916667 19.9467C0.0733333 19.855 0.0366667 19.7633 0 19.6717C0 19.1033 0 18.535 0 17.9483C0.0366667 17.8383 0.0733333 17.7283 0.0916667 17.6183C0.238333 16.5917 0.55 15.6017 1.08167 14.7217C2.56667 12.2283 4.76667 10.7983 7.68167 10.56C7.95667 10.5417 8.085 10.4317 8.15833 10.175C8.32333 9.66167 8.47 9.13 8.69 8.635C10.3767 4.76667 13.2 2.10833 17.1967 0.751667C18.3333 0.385 19.5433 0.238333 20.7167 0C21.395 0 22.0917 0 22.77 0C23.2833 0.0916667 23.815 0.146667 24.3283 0.256667C28.9117 1.22833 32.2667 3.81333 34.3383 8.03C34.54 8.45167 34.76 8.635 35.2367 8.67167C38.445 8.92833 40.975 11.8617 40.7733 15.07C40.755 15.3633 40.8467 15.5283 41.085 15.6933C42.0567 16.28 42.845 17.0867 43.3033 18.1317C43.5967 18.81 43.7617 19.5617 43.9817 20.2767C44 20.7167 44 21.1383 44 21.5783ZM30.91 25.3183C31.02 25.3367 31.0567 25.355 31.1117 25.355C33.4033 25.355 35.695 25.3733 37.9867 25.355C40.2417 25.3183 42.2033 23.3933 42.2583 21.1383C42.3133 19.2317 41.47 17.8017 39.765 16.9217C38.995 16.5367 38.9217 16.3533 39.0133 15.4917C39.05 15.0883 39.0867 14.6667 39.0317 14.2633C38.7017 11.8617 36.7033 10.23 34.2833 10.3767C33.715 10.4133 33.44 10.2483 33.2017 9.71667C33.1283 9.55167 33.0733 9.38667 33 9.24C30.8733 4.65667 27.2983 2.12667 22.2933 1.76C18.9567 1.52167 16.005 2.64 13.4933 4.84C11.6967 6.39833 10.4867 8.32333 9.80833 10.615C10.4133 10.7983 11 10.9817 11.5683 11.2017C12.1 11.4033 12.32 11.8983 12.1183 12.375C11.9167 12.87 11.44 12.9617 10.725 12.705C8.14 11.7517 5.79333 12.1917 3.75833 14.0617C1.815 15.84 1.21 18.6633 2.16333 21.1567C3.08 23.595 5.48167 25.2817 8.085 25.3367C9.66167 25.3733 11.2383 25.3367 12.815 25.3367C12.8883 25.3367 12.98 25.3183 13.09 25.3C13.09 23.6317 13.09 22 13.09 20.35C13.09 20.0017 13.1083 19.6533 13.2 19.3233C13.4933 18.205 14.4467 17.5083 15.7117 17.5083C19.2867 17.5083 22.8433 17.5083 26.4183 17.5083C27.0967 17.5083 27.7567 17.49 28.435 17.5083C29.755 17.545 30.7633 18.425 30.8733 19.745C30.965 20.8633 30.91 22 30.9283 23.1367C30.91 23.8883 30.91 24.585 30.91 25.3183ZM29.1683 38.4817C29.1683 33.3117 29.1683 28.1783 29.1683 23.045C24.365 23.045 19.6167 23.045 14.85 23.045C14.85 28.1967 14.85 33.33 14.85 38.4817C19.6167 38.4817 24.365 38.4817 29.1683 38.4817ZM14.8133 21.285C19.635 21.285 24.4017 21.285 29.205 21.285C29.205 20.955 29.205 20.6433 29.205 20.3317C29.205 19.5067 28.9667 19.25 28.1233 19.25C25.5017 19.25 22.88 19.25 20.2583 19.25C18.7367 19.25 17.215 19.25 15.7117 19.25C15.1433 19.25 14.85 19.4883 14.8133 20.02C14.7767 20.4233 14.8133 20.845 14.8133 21.285ZM14.795 40.2417C14.795 40.59 14.795 40.9017 14.795 41.195C14.795 42.0567 15.0333 42.295 15.895 42.295C19.965 42.295 24.035 42.295 28.0867 42.295C28.1783 42.295 28.2883 42.295 28.38 42.295C28.8383 42.2583 29.1133 42.0383 29.15 41.58C29.1867 41.14 29.15 40.7 29.15 40.2417C24.3833 40.2417 19.6167 40.2417 14.795 40.2417Z" fill="black"/>
<path d="M6.37998 31.955C6.37998 33.825 6.37998 35.695 6.37998 37.62C6.52665 37.62 6.65498 37.6384 6.80165 37.6384C7.69998 37.6384 8.59831 37.6384 9.51498 37.6384C10.0833 37.6384 10.45 37.9867 10.45 38.5C10.45 38.995 10.1016 39.3434 9.51498 39.3617C8.21331 39.38 6.91165 39.38 5.60998 39.3617C4.98665 39.3617 4.65665 38.995 4.65665 38.335C4.65665 36.3734 4.65665 34.4117 4.65665 32.45C4.65665 32.285 4.65665 32.1384 4.65665 31.9734C4.60165 31.9734 4.54665 31.9734 4.52831 31.9917C4.03331 32.2117 3.64831 32.1567 3.37331 31.8084C3.09831 31.4417 3.13498 31.0017 3.50165 30.6167C3.94165 30.1584 4.38165 29.7184 4.83998 29.2784C5.29831 28.8567 5.73831 28.8567 6.19665 29.2967C6.58165 29.6633 6.96665 30.0667 7.35165 30.4517C7.84665 30.9467 7.95665 31.3317 7.71831 31.735C7.44331 32.1383 7.07665 32.2117 6.37998 31.955Z" fill="black"/>
<path d="M35.9882 39.3617C36.0615 39.545 36.1349 39.6917 36.1532 39.8384C36.2082 40.205 36.0799 40.48 35.7682 40.6817C35.4565 40.8834 35.1265 40.9017 34.8515 40.6634C34.2649 40.1134 33.6965 39.5634 33.1649 38.9767C32.8532 38.6284 32.9449 38.2067 33.3115 37.8217C33.7149 37.4 34.1182 37.015 34.5215 36.6117C34.9982 36.1534 35.3649 36.0617 35.7682 36.3184C36.1899 36.5934 36.2449 36.9784 35.9882 37.6201C36.5199 37.6201 37.0332 37.6201 37.6382 37.6201C37.6382 37.4917 37.6382 37.3634 37.6382 37.2167C37.6382 36.2817 37.6382 35.3651 37.6382 34.4301C37.6382 33.8434 37.9865 33.4401 38.4815 33.4401C38.9949 33.4217 39.3432 33.8251 39.3615 34.4484C39.3615 35.7501 39.3615 37.0517 39.3615 38.3534C39.3615 39.0317 39.0316 39.3617 38.3532 39.3617C37.5649 39.3617 36.7949 39.3617 35.9882 39.3617Z" fill="black"/>
<path d="M38.4998 30.9284C38.0598 30.9284 37.6382 30.5251 37.6382 30.0851C37.6382 29.6451 38.0415 29.2234 38.4815 29.2234C38.9215 29.2234 39.3432 29.6267 39.3432 30.0667C39.3615 30.5067 38.9582 30.9284 38.4998 30.9284Z" fill="black"/>
<path d="M13.9151 13.1267C14.4101 13.1267 14.7768 13.4934 14.7768 13.9884C14.7768 14.4467 14.3918 14.85 13.9518 14.85C13.4934 14.85 13.0718 14.4467 13.0718 13.97C13.0718 13.5117 13.4568 13.145 13.9151 13.1267Z" fill="black"/>
<path d="M21.8166 27.1333C23.8883 27.17 25.5016 27.7933 26.8766 29.0583C27.3716 29.5166 27.445 29.9933 27.0783 30.3966C26.73 30.7816 26.2166 30.745 25.7216 30.305C23.9433 28.7283 21.6333 28.38 19.58 29.4066C19.1033 29.645 18.6816 30.0116 18.2416 30.3416C17.9483 30.58 17.655 30.7633 17.27 30.635C16.6466 30.4333 16.4816 29.6633 16.9766 29.1683C18.0216 28.1233 19.2683 27.4816 20.735 27.225C21.1566 27.17 21.5966 27.1516 21.8166 27.1333Z" fill="black"/>
<path d="M23.9982 33.0183C23.9066 32.9633 23.6866 32.89 23.5032 32.7617C22.4032 31.955 21.5782 31.955 20.5149 32.7433C20.0382 33.11 19.5432 33.0917 19.2132 32.7067C18.8832 32.3033 18.9566 31.8083 19.4332 31.405C21.0099 30.085 23.1366 30.1217 24.6216 31.4783C24.9149 31.7533 25.0616 32.0833 24.8966 32.4683C24.7866 32.8167 24.5116 33 23.9982 33.0183Z" fill="black"/>
<path d="M22.8432 34.3749C22.8432 34.8149 22.4399 35.2366 21.9999 35.2366C21.5599 35.2366 21.1382 34.8333 21.1382 34.3933C21.1382 33.9533 21.5415 33.5316 21.9815 33.5316C22.4399 33.5133 22.8432 33.9166 22.8432 34.3749Z" fill="black"/>
<path d="M21.9815 42.0385C21.5232 42.0385 21.1382 41.6351 21.1382 41.1951C21.1382 40.7368 21.5415 40.3518 21.9999 40.3518C22.4582 40.3518 22.8432 40.7551 22.8432 41.2135C22.8432 41.6535 22.4582 42.0385 21.9815 42.0385Z" fill="black"/>
</g>
<defs>
<clipPath id="clip0_213_411">
<rect width="44" height="44" fill="white"/>
</clipPath>
</defs>
</svg>
