<svg width="6" height="11" viewBox="0 0 6 11" fill="none" xmlns="http://www.w3.org/2000/svg">
<path d="M6 5.14434C6 5.06187 5.95876 4.96908 5.89691 4.90723L1.09275 0.103075C1.0309 0.0412195 0.938114 -1.8842e-05 0.855639 -1.8842e-05C0.773165 -1.8842e-05 0.680381 0.0412195 0.618525 0.103075L0.103058 0.618542C0.0412016 0.680398 -3.57914e-05 0.773182 -3.57914e-05 0.855657C-3.57914e-05 0.938131 0.0412016 1.03092 0.103058 1.09277L4.15463 5.14434L0.103058 9.19591C0.0412016 9.25777 -3.57914e-05 9.35055 -3.57914e-05 9.43303C-3.57914e-05 9.52581 0.0412016 9.60829 0.103058 9.67014L0.618525 10.1856C0.680381 10.2475 0.773165 10.2887 0.855639 10.2887C0.938114 10.2887 1.0309 10.2475 1.09275 10.1856L5.89691 5.38146C5.95876 5.3196 6 5.22682 6 5.14434Z" fill="#E93A7D"/>
</svg>
