<svg width="45" height="44" viewBox="0 0 45 44" fill="none" xmlns="http://www.w3.org/2000/svg">
<g clip-path="url(#clip0_213_111)">
<path d="M44.1445 24.6583C43.9426 25.1533 43.5573 25.3 43.0436 25.3C37.0256 25.3 31.0075 25.3 24.9895 25.3C24.2189 25.3 23.9253 25.0067 23.9253 24.2367C23.9253 22.3483 23.9253 20.46 23.9253 18.5717C23.9253 18.425 23.9253 18.26 23.9253 18.0767C21.6135 18.0767 19.3384 18.0767 17.045 18.0767C17.045 20.7717 17.045 23.4667 17.045 26.1617C18.9898 26.345 20.3475 28.3067 19.265 30.4333C19.9256 30.9283 20.3659 31.57 20.476 32.4133C20.5861 33.2383 20.3109 33.9717 19.7971 34.595C20.8613 36.6667 20.7145 37.6567 19.2467 38.83C19.3201 39.49 19.4852 40.1133 19.4118 40.7C19.2467 42.0567 18.1091 43.0283 16.6964 43.0283C13.9259 43.0467 11.1554 43.065 8.40322 42.955C6.45836 42.8817 4.69699 42.2033 3.44935 40.59C3.37596 40.4983 3.19248 40.425 3.0457 40.425C2.38518 40.4067 1.72467 40.425 1.06415 40.4067C0.421981 40.3883 0.128418 40.0767 0.128418 39.435C0.128418 35.9517 0.128418 32.4683 0.128418 29.0033C0.128418 28.38 0.458676 28.05 1.0825 28.05C1.65127 28.0317 2.22005 28.05 2.84387 28.05C2.86222 27.7383 2.86222 27.4267 2.91726 27.1517C3.21083 25.2083 4.42177 24.0717 6.23819 23.485C7.28401 23.155 8.36652 23.1 9.46738 23.1C10.2013 23.1 10.9535 23.1 11.7425 23.1C11.7425 22.88 11.7425 22.715 11.7425 22.55C11.7425 15.8217 11.7425 9.09332 11.7425 2.36499C11.7425 1.42999 11.9994 1.17332 12.9351 1.17332C19.2834 1.17332 25.6317 1.17332 31.98 1.17332C32.8974 1.17332 33.1542 1.42999 33.1542 2.34666C33.1542 4.06999 33.1542 5.77499 33.1542 7.57166C33.3377 7.57166 33.5028 7.57166 33.668 7.57166C36.7871 7.57166 39.9245 7.57166 43.0436 7.57166C43.5573 7.57166 43.9426 7.71832 44.1628 8.19499C44.1628 8.35999 44.1628 8.54332 44.1628 8.70832C44.1078 8.83666 44.0344 8.94666 43.9793 9.07499C43.0803 11.44 42.1813 13.7867 41.2639 16.1517C41.1538 16.445 41.1538 16.7017 41.2639 17.0133C42.1629 19.25 43.0436 21.4867 43.9243 23.7417C43.9793 23.8883 44.0711 24.035 44.1445 24.1817C44.1445 24.3283 44.1445 24.4933 44.1445 24.6583ZM31.4112 2.89666C26.6041 2.89666 21.8337 2.89666 17.0083 2.89666C17.0083 3.07999 17.0083 3.22666 17.0083 3.37332C17.0083 4.65666 17.0083 5.92166 17.0083 7.20499C17.0083 7.75499 16.7698 8.08499 16.3478 8.17666C15.7606 8.30499 15.3019 7.91999 15.3019 7.25999C15.2836 5.97666 15.3019 4.71166 15.3019 3.42832C15.3019 3.26332 15.3019 3.09832 15.3019 2.91499C14.6598 2.91499 14.0726 2.91499 13.4855 2.91499C13.4855 10.7067 13.4855 18.4617 13.4855 26.1983C14.1093 26.1983 14.6781 26.1983 15.3019 26.1983C15.3019 25.9783 15.3019 25.795 15.3019 25.6117C15.3019 22.1833 15.3019 18.7367 15.3019 15.3083C15.3019 14.6667 15.6139 14.2817 16.1459 14.2817C16.6964 14.2633 17.0083 14.6483 17.0266 15.3267C17.0266 15.6567 17.0266 16.005 17.0266 16.335C21.8704 16.335 26.6408 16.335 31.4295 16.335C31.4112 11.825 31.4112 7.38832 31.4112 2.89666ZM11.7058 24.7317C10.2196 24.805 8.75182 24.7683 7.3207 24.9883C5.11898 25.3367 4.40342 26.455 4.67864 28.6917C4.75203 29.3517 4.42177 29.7367 3.76126 29.755C3.13744 29.7733 2.51361 29.755 1.87145 29.755C1.87145 32.7617 1.87145 35.7133 1.87145 38.7017C2.51361 38.7017 3.11909 38.7017 3.74291 38.7017C4.1649 38.7017 4.44012 38.9033 4.67864 39.2517C4.9722 39.6733 5.33916 40.0767 5.76115 40.3883C6.5501 40.9567 7.50418 41.2133 8.47661 41.2317C11.1921 41.2867 13.9259 41.2867 16.6413 41.305C16.7881 41.305 16.9349 41.2867 17.0633 41.2317C17.4486 41.085 17.7055 40.7917 17.7605 40.37C17.7972 39.9667 17.6504 39.6367 17.3018 39.4167C17.1367 39.325 16.9349 39.2883 16.7331 39.2333C16.256 39.105 15.9992 38.7567 16.0358 38.28C16.0725 37.8583 16.4028 37.5467 16.8798 37.5283C17.2101 37.51 17.5404 37.5283 17.8706 37.4917C18.4027 37.4367 18.7696 37.015 18.788 36.52C18.8063 36.025 18.4577 35.585 17.944 35.475C17.8339 35.4567 17.7238 35.4383 17.6137 35.4017C17.2284 35.255 17.045 34.98 17.0633 34.5767C17.0817 34.1917 17.2835 33.935 17.6321 33.8067C17.7238 33.77 17.8339 33.77 17.9257 33.7517C18.4761 33.6233 18.8247 33.1467 18.788 32.6333C18.733 32.1017 18.311 31.7167 17.7422 31.6983C17.522 31.6983 17.2835 31.6983 17.0633 31.6983C16.5129 31.68 16.1643 31.35 16.1276 30.8917C16.0909 30.4517 16.4211 30.085 16.9349 29.9933C17.6321 29.865 17.999 29.4433 17.944 28.8383C17.889 28.2517 17.467 27.94 16.7514 27.94C13.724 27.94 10.6967 27.94 7.68766 27.94C7.11888 27.94 6.75193 27.5917 6.75193 27.0967C6.75193 26.6017 7.11888 26.235 7.66931 26.235C8.25643 26.2167 8.84356 26.235 9.43068 26.235C10.1829 26.235 10.9352 26.235 11.7058 26.235C11.7058 25.7217 11.7058 25.2817 11.7058 24.7317ZM33.1542 9.27666C33.1542 9.47832 33.1542 9.62499 33.1542 9.78999C33.1542 12.1733 33.1542 14.5383 33.1542 16.9217C33.1542 17.3617 33.0258 17.6733 32.6955 17.985C30.9158 19.7083 29.1361 21.4317 27.3564 23.155C27.2463 23.265 27.1362 23.3933 26.9711 23.5583C32.035 23.5583 36.9889 23.5583 41.9978 23.5583C41.9244 23.375 41.8877 23.2283 41.8327 23.0817C41.0437 21.0833 40.2548 19.085 39.4658 17.105C39.319 16.7383 39.319 16.39 39.4658 16.0233C40.163 14.2083 40.8602 12.3933 41.5575 10.5783C41.7226 10.1567 41.8694 9.73499 42.0528 9.27666C39.0438 9.27666 36.1265 9.27666 33.1542 9.27666ZM30.1452 18.0583C28.604 18.0583 27.1545 18.0583 25.6867 18.0583C25.6867 19.4883 25.6867 20.8817 25.6867 22.385C27.1729 20.9367 28.6223 19.5433 30.1452 18.0583Z" fill="black"/>
<path d="M17.0083 11.2567C17.0083 11.715 16.623 12.1 16.1643 12.1C15.7056 12.1 15.3203 11.715 15.3203 11.2383C15.3203 10.7433 15.7056 10.3767 16.201 10.3767C16.6597 10.4133 17.0083 10.78 17.0083 11.2567Z" fill="black"/>
</g>
<defs>
<clipPath id="clip0_213_111">
<rect width="44.0344" height="44" fill="white"/>
</clipPath>
</defs>
</svg>
