<svg width="44" height="44" viewBox="0 0 44 44" fill="none" xmlns="http://www.w3.org/2000/svg">
<path d="M23.375 0C23.54 0.146667 23.705 0.275 23.8517 0.421667C26.2167 2.78667 28.5817 5.17 30.965 7.51667C31.2583 7.81 31.3867 8.10333 31.3684 8.50667C31.35 9.82667 31.3684 11.165 31.3684 12.54C31.5517 12.54 31.7167 12.54 31.8633 12.54C33.66 12.54 35.475 12.54 37.2717 12.54C38.3167 12.54 38.9217 13.145 38.9217 14.19C38.9217 23.5767 38.9217 32.945 38.9217 42.3317C38.9217 43.3767 38.3167 43.9817 37.2717 43.9817C30.8917 43.9817 24.53 43.9817 18.15 43.9817C17.1233 44 16.5 43.395 16.5 42.3867C16.5 39.6 16.5 36.795 16.5 34.0083C16.5 33.4767 16.7383 33.165 17.16 33.1833C17.5633 33.1833 17.7833 33.495 17.8017 34.0267C17.8017 34.4667 17.8017 34.9067 17.8017 35.3833C24.42 35.3833 31.02 35.3833 37.6567 35.3833C37.6567 35.2367 37.6567 35.09 37.6567 34.9617C37.6567 28.1233 37.6567 21.2667 37.6567 14.4283C37.6567 13.86 37.6567 13.8417 37.0883 13.8417C35.3467 13.8417 33.5867 13.8417 31.845 13.8417C31.6984 13.8417 31.57 13.8417 31.3867 13.8417C31.3867 14.025 31.3867 14.19 31.3867 14.3367C31.3867 16.2983 31.3867 18.26 31.3867 20.2217C31.3867 20.35 31.405 20.4783 31.3684 20.6067C31.295 20.9367 31.075 21.1383 30.7267 21.1383C30.3783 21.1383 30.1767 20.9367 30.1033 20.6067C30.0667 20.46 30.085 20.3133 30.085 20.185C30.085 16.61 30.085 13.0167 30.085 9.44167C30.085 9.27667 30.085 9.09333 30.085 8.87333C29.92 8.87333 29.755 8.87333 29.6083 8.87333C27.8117 8.87333 25.9967 8.87333 24.2 8.87333C23.1367 8.87333 22.5317 8.26833 22.5317 7.18667C22.5317 5.39 22.5317 3.61167 22.5317 1.815C22.5317 1.66833 22.5317 1.50333 22.5317 1.32C22.3667 1.32 22.2567 1.30167 22.1283 1.30167C18.3517 1.30167 14.575 1.30167 10.78 1.30167C10.3767 1.30167 10.23 1.39333 10.23 1.83333C10.2483 8.70833 10.23 15.5833 10.23 22.4583C10.23 22.5867 10.23 22.715 10.23 22.88C10.4317 22.88 10.5967 22.88 10.7617 22.88C17.3067 22.88 23.8517 22.88 30.3967 22.88C31.2033 22.88 31.3684 23.045 31.3684 23.87C31.3684 25.85 31.3684 27.83 31.3684 29.7917C31.3684 30.855 30.7634 31.46 29.7 31.4783C23.3383 31.4783 16.9767 31.4783 10.615 31.4783C9.55168 31.4783 8.94668 30.8733 8.94668 29.7917C8.94668 25.5567 8.94668 21.3217 8.94668 17.0683C8.94668 16.9033 8.94668 16.7383 8.94668 16.5183C8.25001 16.5183 7.60835 16.5 6.94835 16.5183C6.60001 16.5183 6.41668 16.7567 6.36168 17.105C6.34335 17.215 6.36168 17.325 6.36168 17.4533C6.36168 23.4483 6.36168 29.425 6.36168 35.42C6.36168 36.1717 6.54501 36.355 7.29668 36.3733C7.82835 36.3733 8.36001 36.3733 8.94668 36.3733C8.94668 35.8233 8.96501 35.2733 8.94668 34.7417C8.92835 34.375 9.03835 34.0633 9.38668 33.88C9.73501 33.6967 10.0467 33.7883 10.3583 33.99C11.4767 34.76 12.6133 35.4933 13.75 36.2633C14.41 36.7033 14.41 37.345 13.75 37.785C12.6133 38.555 11.4583 39.3067 10.3217 40.0767C10.0283 40.2783 9.71668 40.3333 9.38668 40.15C9.05668 39.9667 8.94668 39.6917 8.94668 39.325C8.96501 38.7933 8.94668 38.2433 8.94668 37.6567C8.32335 37.6567 7.73668 37.6567 7.16835 37.6567C5.90335 37.6567 5.09668 36.85 5.09668 35.6033C5.09668 29.4983 5.09668 23.3933 5.09668 17.3067C5.09668 16.0417 5.90335 15.2533 7.16835 15.235C7.75501 15.235 8.34168 15.235 8.96501 15.235C8.96501 15.0333 8.96501 14.8683 8.96501 14.685C8.96501 10.4683 8.98335 6.23333 8.94668 2.01667C8.94668 1.08167 9.20335 0.403333 10.0833 0.0183333C14.5017 0 18.9383 0 23.375 0ZM10.23 24.1633C10.23 26.0333 10.2483 27.8483 10.23 29.6633C10.23 30.0667 10.34 30.1767 10.7433 30.1767C17.0317 30.1583 23.3017 30.1583 29.59 30.1767C29.9933 30.1767 30.1033 30.03 30.1033 29.645C30.085 27.94 30.1033 26.235 30.1033 24.53C30.1033 24.4017 30.085 24.2917 30.085 24.1633C23.43 24.1633 16.8667 24.1633 10.23 24.1633ZM17.8383 36.7217C17.82 36.7767 17.8017 36.795 17.8017 36.8133C17.8017 38.665 17.8017 40.4983 17.7833 42.35C17.7833 42.68 17.9667 42.7167 18.2233 42.7167C24.5483 42.7167 30.8733 42.7167 37.1983 42.7167C37.5467 42.7167 37.6383 42.5883 37.6383 42.2583C37.62 40.9567 37.6383 39.655 37.6383 38.3533C37.6383 37.8217 37.6383 37.2717 37.6383 36.7217C31.02 36.7217 24.4383 36.7217 17.8383 36.7217ZM28.93 7.55333C27.225 5.86667 25.5017 4.125 23.7967 2.42C23.7967 3.94167 23.7967 5.555 23.7967 7.16833C23.7967 7.44333 23.9067 7.55333 24.1817 7.55333C25.795 7.55333 27.4267 7.55333 28.93 7.55333ZM10.2483 38.5367C11.0367 38.005 11.77 37.5283 12.54 36.9967C11.7517 36.465 11.0183 35.9883 10.2483 35.475C10.2483 36.5017 10.2483 37.4917 10.2483 38.5367Z" fill="black"/>
<path d="M19.8916 16.5001C18.3883 16.5001 16.8849 16.5001 15.3816 16.5001C15.0149 16.5001 14.7399 16.3718 14.6299 16.0051C14.5199 15.5835 14.8316 15.2168 15.3449 15.2168C16.2249 15.2168 17.0866 15.2168 17.9666 15.2168C20.1116 15.2168 22.2566 15.2168 24.4016 15.2168C24.5849 15.2168 24.8416 15.2168 24.9333 15.3268C25.0983 15.5101 25.2449 15.7851 25.2266 16.0051C25.1899 16.3535 24.8966 16.5001 24.5299 16.5001C23.3933 16.5001 22.2383 16.5001 21.1016 16.5001C20.6983 16.5001 20.2949 16.5001 19.8916 16.5001Z" fill="black"/>
<path d="M20.0383 13.9149C19.0666 13.9149 18.095 13.9149 17.1233 13.9149C16.6283 13.9149 16.335 13.6766 16.335 13.2733C16.335 12.8699 16.6283 12.6316 17.1233 12.6316C19.085 12.6316 21.0466 12.6316 23.0083 12.6316C23.5033 12.6316 23.7966 12.8699 23.7966 13.2733C23.7966 13.6766 23.5033 13.9149 23.0083 13.9149C22.0183 13.9333 21.0283 13.9149 20.0383 13.9149Z" fill="black"/>
<path d="M20.0383 19.0851C19.0666 19.0851 18.095 19.0851 17.1233 19.0851C16.6283 19.0851 16.335 18.8284 16.335 18.4434C16.335 18.0401 16.6283 17.8018 17.1416 17.8018C19.1033 17.8018 21.065 17.8018 23.0266 17.8018C23.5216 17.8018 23.815 18.0584 23.815 18.4434C23.815 18.8468 23.5216 19.0851 23.0083 19.0851C22.0183 19.0851 21.0283 19.0851 20.0383 19.0851Z" fill="black"/>
<path d="M19.9468 26.5101C21.4135 26.5101 22.8618 26.5101 24.3285 26.5101C24.4752 26.5101 24.6585 26.4735 24.7502 26.5468C24.9518 26.6935 25.1718 26.8951 25.2452 27.1151C25.3368 27.4085 25.1168 27.6651 24.8052 27.7568C24.6402 27.8118 24.4568 27.8118 24.2918 27.8118C21.3952 27.8118 18.4802 27.8118 15.5835 27.8118C15.4918 27.8118 15.3818 27.8118 15.2902 27.8118C14.8685 27.7751 14.6301 27.5368 14.6118 27.1701C14.6118 26.7851 14.8685 26.5285 15.3268 26.5285C16.8668 26.5101 18.4068 26.5101 19.9468 26.5101Z" fill="black"/>
<path d="M27.5367 39.0684C28.985 39.0684 30.4334 39.0684 31.8634 39.0684C32.01 39.0684 32.1567 39.0684 32.285 39.0867C32.615 39.1417 32.78 39.3617 32.7984 39.6917C32.8167 40.0217 32.6334 40.2417 32.3217 40.315C32.1384 40.3517 31.955 40.3517 31.7717 40.3517C28.9117 40.3517 26.0517 40.3517 23.1917 40.3517C23.0084 40.3517 22.8067 40.3517 22.6417 40.315C22.33 40.2417 22.165 40.0034 22.165 39.6917C22.1834 39.38 22.3484 39.16 22.6784 39.105C22.825 39.0867 22.9717 39.0867 23.1 39.0867C24.6034 39.0684 26.07 39.0684 27.5367 39.0684Z" fill="black"/>
</svg>
