<svg width="58" height="8" viewBox="0 0 58 8" fill="none" xmlns="http://www.w3.org/2000/svg">
<path fill-rule="evenodd" clip-rule="evenodd" d="M7.47385 7.39322H6.42444V1.95205H6.38861L4.16181 7.33686H3.31204L1.08012 1.95205H1.04429V7.39322H0V0H1.32584L3.71645 5.83567H3.7574L6.14289 0H7.47385V7.39322ZM10.3458 6.60932C11.1187 6.60932 11.7228 6.07648 11.7228 5.37456V4.9493L10.3969 5.03128C9.73658 5.07739 9.36289 5.36943 9.36289 5.83055C9.36289 6.30191 9.75194 6.60932 10.3458 6.60932ZM10.0386 7.48544C8.98408 7.48544 8.24693 6.82963 8.24693 5.86129C8.24693 4.91856 8.96872 4.33961 10.2485 4.26788L11.7228 4.18078V3.76578C11.7228 3.16633 11.3184 2.80768 10.6427 2.80768C10.0028 2.80768 9.60348 3.11509 9.50622 3.5967H8.46193C8.52336 2.62323 9.35265 1.90594 10.6836 1.90594C11.989 1.90594 12.8234 2.59762 12.8234 3.67868V7.39322H11.7637V6.50685H11.7381C11.4259 7.1063 10.745 7.48544 10.0386 7.48544ZM18.4135 3.858H17.359C17.2464 3.28417 16.8164 2.82817 16.0946 2.82817C15.2397 2.82817 14.6766 3.54034 14.6766 4.69825C14.6766 5.88178 15.2448 6.56833 16.1048 6.56833C16.7856 6.56833 17.231 6.19432 17.359 5.56925H18.4238C18.306 6.71691 17.3897 7.49569 16.0946 7.49569C14.5537 7.49569 13.5504 6.44024 13.5504 4.69825C13.5504 2.987 14.5537 1.90594 16.0843 1.90594C17.4716 1.90594 18.3162 2.79743 18.4135 3.858ZM22.2017 7.39322H19.2378V0H22.1864C23.4969 0 24.3569 0.727538 24.3569 1.84446C24.3569 2.62836 23.7784 3.33028 23.0413 3.45324V3.49423C24.0446 3.60695 24.7203 4.31911 24.7203 5.30283C24.7203 6.6042 23.7733 7.39322 22.2017 7.39322ZM20.3845 0.937601V3.14583H21.6693C22.6624 3.14583 23.2102 2.73595 23.2102 2.00329C23.2102 1.31674 22.7392 0.937601 21.9099 0.937601H20.3845ZM20.3845 6.45561H21.9663C23.0003 6.45561 23.548 6.03036 23.548 5.2311C23.548 4.43183 22.9849 4.02195 21.8997 4.02195H20.3845V6.45561ZM27.7867 7.49569C26.2459 7.49569 25.2323 6.43512 25.2323 4.69825C25.2323 2.96651 26.251 1.90594 27.7867 1.90594C29.3225 1.90594 30.3412 2.96651 30.3412 4.69825C30.3412 6.43512 29.3276 7.49569 27.7867 7.49569ZM27.7867 6.5837C28.657 6.5837 29.215 5.89715 29.215 4.69825C29.215 3.50448 28.6519 2.81793 27.7867 2.81793C26.9216 2.81793 26.3585 3.50448 26.3585 4.69825C26.3585 5.89715 26.9216 6.5837 27.7867 6.5837ZM33.4076 7.49569C31.8667 7.49569 30.8532 6.43512 30.8532 4.69825C30.8532 2.96651 31.8719 1.90594 33.4076 1.90594C34.9433 1.90594 35.962 2.96651 35.962 4.69825C35.962 6.43512 34.9484 7.49569 33.4076 7.49569ZM33.4076 6.5837C34.2778 6.5837 34.8358 5.89715 34.8358 4.69825C34.8358 3.50448 34.2727 2.81793 33.4076 2.81793C32.5425 2.81793 31.9794 3.50448 31.9794 4.69825C31.9794 5.89715 32.5425 6.5837 33.4076 6.5837ZM37.8715 4.31399L40.0471 2.00329H41.3474L39.1154 4.32424L41.4344 7.39322H40.1495L38.322 5.00054L37.8613 5.45653V7.39322H36.7556V0H37.8613V4.31399H37.8715ZM44.0556 0H46.825C48.2583 0 49.2565 0.988836 49.2565 2.42854C49.2565 3.87337 48.2378 4.86733 46.7891 4.86733H45.2022V7.39322H44.0556V0ZM45.2022 0.968342V3.90411H46.5178C47.5161 3.90411 48.0843 3.36614 48.0843 2.43366C48.0843 1.50119 47.5161 0.968342 46.523 0.968342H45.2022ZM50.0245 7.39322V2.00329H51.079V2.9204H51.1046C51.2838 2.29021 51.765 1.91619 52.3997 1.91619C52.5584 1.91619 52.6967 1.94181 52.7786 1.95718V2.987C52.6915 2.95114 52.497 2.92552 52.282 2.92552C51.5705 2.92552 51.1302 3.40201 51.1302 4.16541V7.39322H50.0245ZM55.4457 7.49569C53.9049 7.49569 52.8913 6.43512 52.8913 4.69825C52.8913 2.96651 53.91 1.90594 55.4457 1.90594C56.9814 1.90594 58.0001 2.96651 58.0001 4.69825C58.0001 6.43512 56.9865 7.49569 55.4457 7.49569ZM55.4457 6.5837C56.3159 6.5837 56.8739 5.89715 56.8739 4.69825C56.8739 3.50448 56.3108 2.81793 55.4457 2.81793C54.5806 2.81793 54.0175 3.50448 54.0175 4.69825C54.0175 5.89715 54.5806 6.5837 55.4457 6.5837Z" fill="#74747C"/>
</svg>
