<svg width="198" height="40" viewBox="0 0 198 40" fill="none" xmlns="http://www.w3.org/2000/svg">
<path d="M20.9459 21.6129C16.5305 24.5162 10.546 23.3692 7.5902 19.0323C7.11582 18.3154 6.71442 17.5627 6.45898 16.7742C6.7874 16.8101 7.11582 16.8101 7.48073 16.8101C9.45124 16.8101 11.4218 16.4516 13.2828 15.6989C13.2828 15.8065 13.2828 15.9498 13.2828 16.0574C13.2828 19.2832 15.9101 21.8638 19.1578 21.8997C19.7417 21.8997 20.362 21.7921 20.9459 21.6129Z" fill="#FF800D"/>
<path d="M19.0119 26.2007C19.0119 25.5197 19.1214 24.8387 19.3768 24.1936C18.3186 24.6237 17.1873 24.9104 16.0561 24.9463C15.9102 24.9463 15.7642 24.9463 15.5817 24.9463C13.4653 24.9463 11.4218 24.2652 9.74318 23.0108C8.90389 22.3656 8.13758 21.6129 7.55372 20.7169C4.05059 24.6595 4.45199 30.6093 8.466 34.0502C12.48 37.4911 18.5375 37.061 22.0406 33.1541C22.442 32.724 22.8069 32.2222 23.0989 31.7204C20.654 30.9319 19.0119 28.7097 19.0119 26.2007Z" fill="#0061FF"/>
<path d="M23.9383 3.40503C21.8583 2.93908 19.6689 3.15413 17.7349 4.05019H18.0268C21.311 4.05019 23.9383 6.66668 23.9383 9.85664V36.4516H31.419V12.6165C31.4555 8.2079 28.3537 4.37277 23.9383 3.40503Z" fill="#0061FF"/>
<path d="M19.267 8.81722C19.267 6.81005 17.6249 5.19714 15.5814 5.19714C15.4355 5.19714 15.2895 5.19714 15.1071 5.23299C10.1078 5.59141 6.23975 9.67743 6.23975 14.6237C6.23975 14.9462 6.23975 15.2688 6.27624 15.5556C6.67764 15.5914 7.04255 15.5914 7.44395 15.5914C11.385 15.5914 15.1435 14.1219 18.0263 11.5054C18.8291 10.8244 19.267 9.85664 19.267 8.81722Z" fill="#FF800D"/>
<path d="M40.87 36.5233C39.8483 36.6667 38.936 35.9857 38.7901 34.9821C38.7536 34.8029 38.7536 34.6237 38.7901 34.4803V17.276C38.6441 16.2724 39.3374 15.3764 40.3592 15.233C40.5416 15.1972 40.7241 15.1972 40.87 15.233H46.8181C50.4307 15.233 53.2405 16.1649 55.211 17.9929C57.1815 19.8208 58.1668 22.4373 58.1668 25.8782C58.1668 29.2832 57.1815 31.8997 55.211 33.7635C53.2405 35.6273 50.4307 36.5592 46.8181 36.5592L40.87 36.5233ZM42.6946 33.2975H46.5626C51.5619 33.2975 54.0798 30.8244 54.0798 25.8423C54.0798 20.8602 51.5619 18.3871 46.5626 18.423H42.6946C42.6946 18.423 42.6946 33.2975 42.6946 33.2975Z" fill="#232323"/>
<path d="M63.0927 36.7384C62.144 36.8459 61.3047 36.2007 61.1587 35.2688C61.1222 35.1255 61.1222 34.9463 61.1587 34.8029V16.8817C61.1222 15.8423 61.925 14.9463 62.9833 14.9104C64.0415 14.8746 64.9538 15.6631 64.9903 16.7025C64.9903 16.7742 64.9903 16.8101 64.9903 16.8817V23.871C65.5011 23.0825 66.1945 22.4373 67.0338 22.043C67.9095 21.6129 68.8948 21.3979 69.8801 21.4337C73.4197 21.4337 75.2077 23.4409 75.2077 27.4911V34.8029C75.2807 35.8423 74.4779 36.7384 73.4197 36.8101C72.3614 36.8817 71.4492 36.0932 71.3762 35.0538C71.3762 35.0179 71.3762 34.9821 71.3762 34.9463C71.3762 34.9104 71.3762 34.8746 71.3762 34.8387V27.7061C71.4492 26.8101 71.2302 25.9498 70.7194 25.1972C70.2085 24.6237 69.4422 24.3369 68.6759 24.4086C67.6541 24.3728 66.7053 24.7312 65.9755 25.448C65.2822 26.2007 64.9173 27.2043 64.9903 28.2079V34.8029C65.1362 35.7348 64.4794 36.595 63.5306 36.7384C63.4212 36.7742 63.2752 36.7742 63.0927 36.7384Z" fill="#232323"/>
<path d="M80.4628 18.7097C79.8425 18.7455 79.2586 18.5663 78.7842 18.172C77.9814 17.3477 77.9814 16.0574 78.7842 15.233C79.2586 14.8746 79.8425 14.6953 80.4628 14.7312C81.9954 14.7312 82.7252 15.4122 82.7252 16.7384C82.7252 18.0645 81.9954 18.7097 80.4628 18.7097ZM80.4628 36.7384C79.9154 36.7742 79.4046 36.5591 79.0397 36.2007C78.6748 35.7706 78.5288 35.233 78.5653 34.6953V23.5842C78.5653 22.2222 79.1856 21.5412 80.4628 21.5412C81.74 21.5412 82.3968 22.2222 82.3968 23.5842V34.6595C82.4333 35.1971 82.2509 35.7348 81.886 36.1649C81.5575 36.5591 81.0102 36.7742 80.4628 36.7384Z" fill="#232323"/>
<path d="M93.7817 36.7384C92.76 36.7742 91.8477 36.0932 91.6288 35.1255L85.2064 17.276C84.9874 16.7384 85.0239 16.1291 85.3523 15.6631C85.7537 15.1972 86.3376 14.9463 86.9579 14.9821C87.4323 14.9463 87.8702 15.0896 88.2351 15.3405C88.6 15.6631 88.8555 16.0932 88.9649 16.5233L93.8912 30.8961L99.0729 16.5592C99.2554 15.6273 100.095 14.9821 101.043 14.9463C101.481 14.9104 101.883 15.0538 102.211 15.3405C102.54 15.699 102.795 16.1291 102.941 16.595L108.05 31.1111L113.122 16.5233C113.268 16.0574 113.523 15.6631 113.852 15.3405C114.217 15.0538 114.655 14.9104 115.129 14.9463C115.713 14.9104 116.26 15.1613 116.589 15.5914C116.917 16.0932 116.954 16.7025 116.698 17.2043L110.203 35.0896C110.057 35.5556 109.765 35.9857 109.4 36.3083C108.597 36.8459 107.539 36.8459 106.736 36.3083C106.371 35.9857 106.079 35.5556 105.933 35.0896L100.934 21.1111L95.8982 35.1255C95.7522 35.5914 95.4603 35.9857 95.1319 36.3441C94.7305 36.6309 94.2561 36.7742 93.7817 36.7384Z" fill="#232323"/>
<path d="M121.077 18.7097C120.457 18.7455 119.873 18.5663 119.398 18.172C118.596 17.3477 118.596 16.0574 119.398 15.233C119.873 14.8746 120.457 14.6953 121.077 14.7312C122.61 14.7312 123.339 15.4122 123.339 16.7384C123.339 18.0645 122.573 18.7097 121.077 18.7097ZM121.077 36.7384C120.53 36.7742 120.019 36.5591 119.654 36.2007C119.289 35.7706 119.143 35.233 119.18 34.6953V23.5842C119.18 22.2222 119.8 21.5412 121.077 21.5412C122.354 21.5412 123.011 22.2222 123.011 23.5842V34.6595C123.048 35.1971 122.865 35.7348 122.537 36.1649C122.135 36.5591 121.588 36.7742 121.077 36.7384Z" fill="#232323"/>
<path d="M131.879 36.81C130.93 36.81 130.018 36.7025 129.069 36.5233C128.157 36.3799 127.244 36.0573 126.405 35.5914C126.04 35.4122 125.748 35.0896 125.602 34.6953C125.493 34.3728 125.529 34.0143 125.639 33.6918C125.748 33.3692 126.004 33.1541 126.332 33.0107C126.697 32.8674 127.098 32.9032 127.463 33.1183C128.193 33.4767 128.959 33.7276 129.762 33.9068C130.456 34.0502 131.185 34.1219 131.879 34.1219C132.645 34.1577 133.411 34.0143 134.068 33.6201C134.543 33.3333 134.798 32.8315 134.798 32.2939C134.798 31.4337 134.178 30.8961 132.9 30.6452L129.835 30.0717C127.244 29.6057 125.931 28.2796 125.931 26.0932C125.894 25.1971 126.186 24.3011 126.733 23.5842C127.317 22.8315 128.084 22.2939 128.996 21.9713C130.054 21.5771 131.185 21.362 132.317 21.3978C133.995 21.362 135.674 21.7921 137.133 22.5806C137.498 22.724 137.754 23.0466 137.827 23.405C137.9 23.7276 137.863 24.086 137.717 24.4086C137.571 24.7312 137.316 24.9462 136.987 25.0896C136.622 25.233 136.185 25.1613 135.856 24.9821C135.272 24.6953 134.652 24.4444 134.032 24.3011C133.484 24.1577 132.937 24.086 132.353 24.086C131.587 24.0143 130.784 24.1935 130.127 24.5878C129.653 24.8745 129.397 25.4122 129.397 25.9498C129.397 26.8459 129.981 27.3835 131.149 27.5986L134.214 28.172C135.345 28.3154 136.404 28.7814 137.243 29.4982C137.936 30.1792 138.338 31.1111 138.265 32.1147C138.301 33.4767 137.644 34.767 136.513 35.5556C135.163 36.4516 133.521 36.8817 131.879 36.81Z" fill="#232323"/>
<path d="M148.19 36.8101C146.657 36.8459 145.161 36.5233 143.811 35.8782C142.607 35.3047 141.621 34.3728 140.965 33.2258C140.271 31.9713 139.943 30.5735 139.979 29.1398C139.943 27.742 140.271 26.3441 140.928 25.1255C141.548 24.0144 142.461 23.0825 143.592 22.4373C144.76 21.7563 146.11 21.4337 147.496 21.4696C149.394 21.362 151.255 22.1147 152.569 23.4767C153.882 24.9821 154.539 26.9176 154.43 28.9248C154.43 29.6774 153.955 30.0359 152.97 30.0359H143.665C143.957 32.6524 145.489 33.9785 148.263 33.9785C148.883 33.9785 149.467 33.9068 150.051 33.7635C150.708 33.6201 151.364 33.405 151.948 33.0825C152.35 32.7957 152.824 32.6882 153.298 32.7957C153.627 32.9032 153.919 33.1183 154.065 33.4409C154.211 33.7635 154.247 34.1577 154.138 34.5162C153.992 34.9463 153.663 35.3047 153.262 35.5197C152.496 35.9857 151.656 36.3083 150.781 36.4875C149.941 36.7025 149.066 36.8101 148.19 36.8101ZM147.642 24.0144C146.621 23.9785 145.635 24.3369 144.906 25.0179C144.176 25.7706 143.738 26.7384 143.628 27.8136H151.182C151.182 26.7742 150.817 25.8065 150.16 24.9821C149.503 24.3011 148.591 23.9427 147.642 24.0144Z" fill="#232323"/>
<path d="M162.056 36.6308C161.582 36.6308 161.327 36.3799 161.327 35.914V28.3154C161.327 27.8495 161.582 27.5986 162.056 27.5986H165.158C166.107 27.5986 166.837 27.8136 167.384 28.2079C167.895 28.6022 168.15 29.2115 168.15 29.9283C168.15 30.4301 168.005 30.8244 167.749 31.1828C167.494 31.5054 167.129 31.7921 166.691 31.9355C167.202 32.0789 167.64 32.3298 167.932 32.6882C168.223 33.0466 168.369 33.5125 168.369 34.086C168.369 34.9104 168.078 35.5197 167.53 35.9498C166.983 36.3799 166.216 36.595 165.268 36.595H162.056V36.6308ZM162.604 31.5771H164.939C166.18 31.5771 166.837 31.0753 166.837 30.1434C166.837 29.1756 166.216 28.7097 164.939 28.7097H162.604V31.5771ZM162.604 35.5914H165.122C166.399 35.5914 167.019 35.0896 167.019 34.086C167.019 33.0824 166.399 32.5806 165.122 32.5806H162.604V35.5914Z" fill="#0061FF"/>
<path d="M170.924 36.6308C170.45 36.6308 170.194 36.3799 170.194 35.914V28.3154C170.194 27.8495 170.45 27.5986 170.924 27.5986H175.668C176.033 27.5986 176.215 27.7778 176.215 28.1362C176.215 28.4946 176.033 28.6738 175.668 28.6738H171.508V31.5054H175.413C175.777 31.5054 175.96 31.6846 175.96 32.043C175.96 32.4014 175.777 32.5806 175.413 32.5806H171.508V35.5556H175.704C176.069 35.5556 176.252 35.7348 176.252 36.0932C176.252 36.4516 176.069 36.6308 175.704 36.6308H170.924Z" fill="#0061FF"/>
<path d="M180.667 36.7025C180.229 36.7025 180.01 36.4516 180.01 36.0215V28.7455H177.273C176.872 28.7455 176.689 28.5663 176.689 28.2079C176.689 27.8494 176.872 27.6702 177.273 27.6702H184.134C184.535 27.6702 184.754 27.8494 184.754 28.2079C184.754 28.6021 184.571 28.7455 184.134 28.7455H181.36V36.0573C181.324 36.4874 181.105 36.7025 180.667 36.7025Z" fill="#0061FF"/>
<path d="M184.644 36.7025C184.389 36.7025 184.206 36.6308 184.097 36.4516C183.987 36.2724 184.024 36.0932 184.133 35.8423L187.673 28.0645C187.746 27.8853 187.855 27.7419 188.001 27.6344C188.147 27.5627 188.293 27.491 188.439 27.491C188.585 27.491 188.731 27.5269 188.877 27.6344C189.023 27.7061 189.133 27.8853 189.206 28.0645L192.745 35.8423C192.855 36.0932 192.891 36.2724 192.782 36.4516C192.709 36.6308 192.526 36.7025 192.271 36.7025C192.088 36.7025 191.942 36.6667 191.833 36.5591C191.724 36.4516 191.614 36.3082 191.541 36.129L190.775 34.4444H186.104L185.374 36.129C185.301 36.3441 185.192 36.4874 185.082 36.5591C184.973 36.6667 184.827 36.7025 184.644 36.7025ZM188.403 29.1039L186.578 33.3692H190.3L188.403 29.1039Z" fill="#0061FF"/>
</svg>
