<svg width="198" height="40" viewBox="0 0 198 40" fill="none" xmlns="http://www.w3.org/2000/svg">
<path d="M20.9459 21.6132C16.5305 24.5164 10.546 23.3695 7.5902 19.0326C7.11582 18.3157 6.71442 17.563 6.45898 16.7745C6.7874 16.8103 7.11582 16.8103 7.48073 16.8103C9.45124 16.8103 11.4218 16.4519 13.2828 15.6992C13.2828 15.8067 13.2828 15.9501 13.2828 16.0576C13.2828 19.2835 15.9101 21.8641 19.1578 21.8999C19.7417 21.8999 20.362 21.7924 20.9459 21.6132Z" fill="#FF800D"/>
<path d="M19.0119 26.2007C19.0119 25.5197 19.1214 24.8387 19.3768 24.1935C18.3186 24.6236 17.1873 24.9103 16.0561 24.9462C15.9102 24.9462 15.7642 24.9462 15.5817 24.9462C13.4653 24.9462 11.4218 24.2652 9.74318 23.0107C8.90389 22.3655 8.13758 21.6129 7.55372 20.7168C4.05059 24.6595 4.45199 30.6093 8.466 34.0501C12.48 37.491 18.5375 37.0609 22.0406 33.1541C22.442 32.724 22.8069 32.2222 23.0989 31.7204C20.654 30.9319 19.0119 28.7096 19.0119 26.2007Z" fill="#0061FF"/>
<path d="M23.9383 3.40512C21.8583 2.93917 19.6689 3.15423 17.7349 4.05028H18.0268C21.311 4.05028 23.9383 6.66677 23.9383 9.85674V36.4517H31.419V12.6166C31.4555 8.20799 28.3537 4.37286 23.9383 3.40512Z" fill="#0061FF"/>
<path d="M19.267 8.81734C19.267 6.81017 17.6249 5.19727 15.5814 5.19727C15.4355 5.19727 15.2895 5.19727 15.1071 5.23311C10.1078 5.59153 6.23975 9.67755 6.23975 14.6238C6.23975 14.9464 6.23975 15.269 6.27624 15.5557C6.67764 15.5915 7.04255 15.5915 7.44395 15.5915C11.385 15.5915 15.1435 14.122 18.0263 11.5055C18.8291 10.8245 19.267 9.85677 19.267 8.81734Z" fill="#FF800D"/>
<path d="M40.87 36.5233C39.8483 36.6666 38.936 35.9856 38.7901 34.982C38.7536 34.8028 38.7536 34.6236 38.7901 34.4803V17.2759C38.6441 16.2724 39.3374 15.3763 40.3592 15.2329C40.5416 15.1971 40.7241 15.1971 40.87 15.2329H46.8181C50.4307 15.2329 53.2405 16.1648 55.211 17.9928C57.1815 19.8208 58.1668 22.4372 58.1668 25.8781C58.1668 29.2831 57.1815 31.8996 55.211 33.7634C53.2405 35.6272 50.4307 36.5591 46.8181 36.5591L40.87 36.5233ZM42.6946 33.2975H46.5626C51.5619 33.2975 54.0798 30.8243 54.0798 25.8423C54.0798 20.8602 51.5619 18.3871 46.5626 18.4229H42.6946C42.6946 18.4229 42.6946 33.2975 42.6946 33.2975Z" fill="#232323"/>
<path d="M63.0927 36.7383C62.144 36.8458 61.3047 36.2007 61.1587 35.2688C61.1222 35.1254 61.1222 34.9462 61.1587 34.8028V16.8817C61.1222 15.8423 61.925 14.9462 62.9833 14.9104C64.0415 14.8745 64.9538 15.663 64.9903 16.7025C64.9903 16.7742 64.9903 16.81 64.9903 16.8817V23.8709C65.5011 23.0824 66.1945 22.4372 67.0338 22.043C67.9095 21.6129 68.8948 21.3978 69.8801 21.4337C73.4197 21.4337 75.2077 23.4408 75.2077 27.491V34.8028C75.2807 35.8422 74.4779 36.7383 73.4197 36.81C72.3614 36.8817 71.4492 36.0931 71.3762 35.0537C71.3762 35.0179 71.3762 34.982 71.3762 34.9462C71.3762 34.9103 71.3762 34.8745 71.3762 34.8387V27.7061C71.4492 26.81 71.2302 25.9498 70.7194 25.1971C70.2085 24.6236 69.4422 24.3369 68.6759 24.4086C67.6541 24.3727 66.7053 24.7311 65.9755 25.448C65.2822 26.2007 64.9173 27.2043 64.9903 28.2078V34.8028C65.1362 35.7347 64.4794 36.5949 63.5306 36.7383C63.4212 36.7741 63.2752 36.7741 63.0927 36.7383Z" fill="#232323"/>
<path d="M80.4628 18.7096C79.8425 18.7454 79.2586 18.5662 78.7842 18.1719C77.9814 17.3476 77.9814 16.0572 78.7842 15.2329C79.2586 14.8744 79.8425 14.6952 80.4628 14.7311C81.9954 14.7311 82.7252 15.4121 82.7252 16.7382C82.7252 18.0644 81.9954 18.7096 80.4628 18.7096ZM80.4628 36.7382C79.9154 36.7741 79.4046 36.559 79.0397 36.2006C78.6748 35.7705 78.5288 35.2329 78.5653 34.6952V23.5841C78.5653 22.2221 79.1856 21.5411 80.4628 21.5411C81.74 21.5411 82.3968 22.2221 82.3968 23.5841V34.6594C82.4333 35.197 82.2509 35.7346 81.886 36.1648C81.5575 36.559 81.0102 36.7741 80.4628 36.7382Z" fill="#232323"/>
<path d="M93.7817 36.7384C92.76 36.7743 91.8477 36.0933 91.6288 35.1255L85.2064 17.2761C84.9874 16.7384 85.0239 16.1291 85.3523 15.6632C85.7537 15.1972 86.3376 14.9463 86.9579 14.9822C87.4323 14.9463 87.8702 15.0897 88.2351 15.3406C88.6 15.6632 88.8555 16.0933 88.9649 16.5234L93.8912 30.8961L99.0729 16.5592C99.2554 15.6273 100.095 14.9822 101.043 14.9463C101.481 14.9105 101.883 15.0539 102.211 15.3406C102.54 15.699 102.795 16.1291 102.941 16.5951L108.05 31.1112L113.122 16.5234C113.268 16.0574 113.523 15.6632 113.852 15.3406C114.217 15.0539 114.655 14.9105 115.129 14.9463C115.713 14.9105 116.26 15.1614 116.589 15.5915C116.917 16.0933 116.954 16.7026 116.698 17.2044L110.203 35.0897C110.057 35.5556 109.765 35.9858 109.4 36.3083C108.597 36.846 107.539 36.846 106.736 36.3083C106.371 35.9858 106.079 35.5556 105.933 35.0897L100.934 21.1112L95.8982 35.1255C95.7522 35.5915 95.4603 35.9858 95.1319 36.3442C94.7305 36.6309 94.2561 36.7743 93.7817 36.7384Z" fill="#232323"/>
<path d="M121.077 18.7096C120.457 18.7454 119.873 18.5662 119.398 18.1719C118.596 17.3476 118.596 16.0572 119.398 15.2329C119.873 14.8744 120.457 14.6952 121.077 14.7311C122.61 14.7311 123.339 15.4121 123.339 16.7382C123.339 18.0644 122.573 18.7096 121.077 18.7096ZM121.077 36.7382C120.53 36.7741 120.019 36.559 119.654 36.2006C119.289 35.7705 119.143 35.2329 119.18 34.6952V23.5841C119.18 22.2221 119.8 21.5411 121.077 21.5411C122.354 21.5411 123.011 22.2221 123.011 23.5841V34.6594C123.048 35.197 122.865 35.7346 122.537 36.1648C122.135 36.559 121.588 36.7741 121.077 36.7382Z" fill="#232323"/>
<path d="M131.879 36.8101C130.93 36.8101 130.018 36.7026 129.069 36.5234C128.157 36.38 127.244 36.0574 126.405 35.5915C126.04 35.4122 125.748 35.0897 125.602 34.6954C125.493 34.3728 125.529 34.0144 125.639 33.6918C125.748 33.3692 126.004 33.1542 126.332 33.0108C126.697 32.8674 127.098 32.9033 127.463 33.1183C128.193 33.4768 128.959 33.7277 129.762 33.9069C130.456 34.0502 131.185 34.1219 131.879 34.1219C132.645 34.1578 133.411 34.0144 134.068 33.6201C134.543 33.3334 134.798 32.8316 134.798 32.294C134.798 31.4337 134.178 30.8961 132.9 30.6452L129.835 30.0717C127.244 29.6058 125.931 28.2796 125.931 26.0933C125.894 25.1972 126.186 24.3011 126.733 23.5843C127.317 22.8316 128.084 22.294 128.996 21.9714C130.054 21.5771 131.185 21.3621 132.317 21.3979C133.995 21.3621 135.674 21.7922 137.133 22.5807C137.498 22.7241 137.754 23.0467 137.827 23.4051C137.9 23.7277 137.863 24.0861 137.717 24.4087C137.571 24.7312 137.316 24.9463 136.987 25.0897C136.622 25.233 136.185 25.1613 135.856 24.9821C135.272 24.6954 134.652 24.4445 134.032 24.3011C133.484 24.1578 132.937 24.0861 132.353 24.0861C131.587 24.0144 130.784 24.1936 130.127 24.5879C129.653 24.8746 129.397 25.4122 129.397 25.9499C129.397 26.8459 129.981 27.3836 131.149 27.5986L134.214 28.1721C135.345 28.3155 136.404 28.7814 137.243 29.4983C137.936 30.1793 138.338 31.1112 138.265 32.1148C138.301 33.4768 137.644 34.7671 136.513 35.5556C135.163 36.4517 133.521 36.8818 131.879 36.8101Z" fill="#232323"/>
<path d="M148.19 36.8101C146.657 36.846 145.161 36.5234 143.811 35.8782C142.607 35.3047 141.621 34.3728 140.965 33.2259C140.271 31.9714 139.943 30.5736 139.979 29.1399C139.943 27.742 140.271 26.3442 140.928 25.1255C141.548 24.0144 142.461 23.0825 143.592 22.4374C144.76 21.7564 146.11 21.4338 147.496 21.4696C149.394 21.3621 151.255 22.1148 152.569 23.4768C153.882 24.9822 154.539 26.9176 154.43 28.9248C154.43 29.6775 153.955 30.0359 152.97 30.0359H143.665C143.957 32.6524 145.489 33.9786 148.263 33.9786C148.883 33.9786 149.467 33.9069 150.051 33.7635C150.708 33.6202 151.364 33.4051 151.948 33.0825C152.35 32.7958 152.824 32.6883 153.298 32.7958C153.627 32.9033 153.919 33.1184 154.065 33.4409C154.211 33.7635 154.247 34.1578 154.138 34.5162C153.992 34.9463 153.663 35.3047 153.262 35.5198C152.496 35.9857 151.656 36.3083 150.781 36.4875C149.941 36.7026 149.066 36.8101 148.19 36.8101ZM147.642 24.0144C146.621 23.9786 145.635 24.337 144.906 25.018C144.176 25.7707 143.738 26.7384 143.628 27.8137H151.182C151.182 26.7743 150.817 25.8065 150.16 24.9822C149.503 24.3012 148.591 23.9427 147.642 24.0144Z" fill="#232323"/>
<path d="M162.056 36.6309C161.582 36.6309 161.327 36.38 161.327 35.914V28.3155C161.327 27.8495 161.582 27.5986 162.056 27.5986H165.158C166.107 27.5986 166.837 27.8137 167.384 28.208C167.895 28.6022 168.15 29.2115 168.15 29.9284C168.15 30.4302 168.005 30.8244 167.749 31.1829C167.494 31.5054 167.129 31.7922 166.691 31.9355C167.202 32.0789 167.64 32.3298 167.932 32.6882C168.223 33.0467 168.369 33.5126 168.369 34.0861C168.369 34.9105 168.078 35.5198 167.53 35.9499C166.983 36.38 166.216 36.595 165.268 36.595H162.056V36.6309ZM162.604 31.5771H164.939C166.18 31.5771 166.837 31.0753 166.837 30.1434C166.837 29.1757 166.216 28.7097 164.939 28.7097H162.604V31.5771ZM162.604 35.5915H165.122C166.399 35.5915 167.019 35.0897 167.019 34.0861C167.019 33.0825 166.399 32.5807 165.122 32.5807H162.604V35.5915Z" fill="#0061FF"/>
<path d="M170.924 36.6309C170.45 36.6309 170.194 36.38 170.194 35.914V28.3155C170.194 27.8495 170.45 27.5986 170.924 27.5986H175.668C176.033 27.5986 176.215 27.7778 176.215 28.1363C176.215 28.4947 176.033 28.6739 175.668 28.6739H171.508V31.5054H175.413C175.777 31.5054 175.96 31.6847 175.96 32.0431C175.96 32.4015 175.777 32.5807 175.413 32.5807H171.508V35.5556H175.704C176.069 35.5556 176.252 35.7348 176.252 36.0933C176.252 36.4517 176.069 36.6309 175.704 36.6309H170.924Z" fill="#0061FF"/>
<path d="M180.667 36.7027C180.229 36.7027 180.01 36.4518 180.01 36.0217V28.7457H177.273C176.872 28.7457 176.689 28.5665 176.689 28.208C176.689 27.8496 176.872 27.6704 177.273 27.6704H184.134C184.535 27.6704 184.754 27.8496 184.754 28.208C184.754 28.6023 184.571 28.7457 184.134 28.7457H181.36V36.0575C181.324 36.4876 181.105 36.7027 180.667 36.7027Z" fill="#0061FF"/>
<path d="M184.644 36.7027C184.389 36.7027 184.206 36.631 184.097 36.4518C183.987 36.2726 184.024 36.0934 184.133 35.8425L187.673 28.0647C187.746 27.8855 187.855 27.7421 188.001 27.6346C188.147 27.5629 188.293 27.4912 188.439 27.4912C188.585 27.4912 188.731 27.5271 188.877 27.6346C189.023 27.7063 189.133 27.8855 189.206 28.0647L192.745 35.8425C192.855 36.0934 192.891 36.2726 192.782 36.4518C192.709 36.631 192.526 36.7027 192.271 36.7027C192.088 36.7027 191.942 36.6668 191.833 36.5593C191.724 36.4518 191.614 36.3084 191.541 36.1292L190.775 34.4446H186.104L185.374 36.1292C185.301 36.3443 185.192 36.4876 185.082 36.5593C184.973 36.6668 184.827 36.7027 184.644 36.7027ZM188.403 29.1041L186.578 33.3694H190.3L188.403 29.1041Z" fill="#0061FF"/>
</svg>
