<svg width="44" height="44" viewBox="0 0 44 44" fill="none" xmlns="http://www.w3.org/2000/svg">
<path d="M43.9813 25.0067C43.8713 25.5017 43.7979 25.9783 43.6696 26.4733C42.7163 29.9567 39.8379 32.45 36.2446 32.9083C35.9146 32.945 35.9146 33.11 35.9146 33.3667C35.9146 35.97 35.9146 38.5733 35.9146 41.1767C35.9146 42.955 34.8696 44 33.0729 44C25.6663 44 18.2779 44 10.8713 44C9.11127 44 8.06627 42.955 8.04794 41.2133C8.04794 38.6283 8.04794 36.0617 8.04794 33.4767C8.04794 33.33 8.04794 33.165 8.04794 33.0367C7.27794 32.835 6.52627 32.725 5.82961 32.45C2.32794 31.0567 0.274607 28.4717 0.0362733 24.7133C-0.220393 20.9733 1.46627 18.15 4.72961 16.28C4.96794 16.1517 5.09627 16.0417 5.07794 15.73C4.85794 11.385 8.98294 8.15833 13.1813 9.44167C13.2363 9.46 13.2913 9.46 13.3829 9.47833C13.4379 9.295 13.4929 9.09333 13.5479 8.91C14.7763 4.14333 18.7913 0.641667 23.6679 0.0733333C23.7596 0.055 23.8513 0.0183333 23.9613 0C24.6763 0 25.3913 0 26.1063 0C26.7113 0.11 27.3163 0.201667 27.9029 0.348333C33.4763 1.705 37.3263 7.00333 36.8496 12.705C36.7763 13.585 36.5929 14.4467 36.4646 15.345C36.4463 15.3267 36.4646 15.345 36.4646 15.345C36.5379 15.3633 36.6113 15.3817 36.6663 15.4C40.2596 16.17 42.6063 18.315 43.6696 21.835C43.7979 22.275 43.8713 22.7517 43.9813 23.21C43.9813 23.7967 43.9813 24.4017 43.9813 25.0067ZM35.9146 31.4783C36.1346 31.4417 36.2996 31.4417 36.4463 31.405C39.7279 30.745 42.0196 28.2883 42.4779 24.915C42.9913 21.065 40.1679 17.3617 36.3179 16.8117C35.9696 16.7567 35.8229 16.83 35.6579 17.1417C35.3096 17.8017 34.9063 18.4617 34.4846 19.085C34.2463 19.4333 33.8246 19.4883 33.4946 19.2683C33.1646 19.0483 33.0729 18.6267 33.2929 18.2417C33.3663 18.1133 33.4579 18.0033 33.5313 17.8933C35.2546 15.345 35.8229 12.5583 35.1263 9.55167C34.0813 4.91333 29.9196 1.55833 25.1896 1.52167C20.3496 1.485 16.1146 4.71167 14.9596 9.35C14.6479 10.5417 14.5563 11.7517 14.6663 12.9617C14.7213 13.4383 14.4096 13.7683 14.0063 13.805C13.6029 13.8417 13.2546 13.53 13.2179 13.0717C13.1813 12.5033 13.1446 11.935 13.1813 11.3667C13.1996 11.0367 13.0896 10.945 12.8329 10.8533C9.49627 9.735 6.01294 12.6867 6.58127 16.17C6.69127 16.8483 6.58127 17.05 5.93961 17.3433C3.02461 18.6267 1.20961 21.615 1.46627 24.7133C1.74127 27.94 3.99627 30.58 7.11294 31.35C7.40627 31.4233 7.71794 31.46 8.04794 31.515C8.04794 31.2767 8.04794 31.13 8.04794 30.965C8.04794 28.1417 8.04794 25.3183 8.04794 22.495C8.04794 20.9733 9.07461 19.8367 10.5963 19.8183C13.5663 19.7817 16.5179 19.7817 19.4879 19.8183C20.7713 19.8367 21.7613 20.735 21.9446 21.9817C21.9996 22.3667 21.9629 22.7517 21.9813 23.1367C21.9996 23.98 22.2196 24.2183 23.0446 24.2183C25.9046 24.2183 28.7646 24.2183 31.6429 24.2183C31.9363 24.2183 32.2479 24.2183 32.5413 24.2917C33.7146 24.585 34.4296 25.575 34.4479 26.8217C34.4479 27.0783 34.3563 27.335 34.6679 27.5367C35.4929 28.05 35.8963 28.82 35.8963 29.81C35.9146 30.3417 35.9146 30.8733 35.9146 31.4783ZM13.0896 42.5333C13.1446 42.5333 13.2913 42.5333 13.4196 42.5333C19.9646 42.5333 26.5096 42.5333 33.0546 42.5333C34.0629 42.5333 34.4479 42.1483 34.4663 41.14C34.4663 37.4367 34.4663 33.715 34.4663 30.0117C34.4663 28.9667 34.0996 28.6 33.0363 28.6C26.9129 28.6 20.7713 28.6 14.6479 28.6C13.5296 28.6 13.1996 28.93 13.1996 30.0667C13.1996 33.4767 13.1996 36.8867 13.1996 40.2967C13.1813 41.03 13.1263 41.7633 13.0896 42.5333ZM32.9446 27.1333C33.1096 26.1983 32.6696 25.685 31.7896 25.6667C31.6246 25.6667 31.4413 25.6667 31.2763 25.6667C28.4896 25.6667 25.6846 25.6667 22.8979 25.6667C21.4313 25.6667 20.5146 24.7133 20.5329 23.2467C20.5329 23.045 20.5329 22.8433 20.5329 22.6417C20.5329 21.615 20.1663 21.2483 19.1396 21.2483C16.4263 21.2483 13.6946 21.2483 10.9813 21.2483C9.89961 21.2483 9.55127 21.615 9.55127 22.6967C9.55127 28.82 9.55127 34.9617 9.55127 41.085C9.55127 41.2317 9.55127 41.3783 9.55127 41.5067C9.60627 42.0567 10.0646 42.4783 10.6146 42.515C11.1646 42.5333 11.6229 42.13 11.7146 41.58C11.7513 41.3783 11.7513 41.1767 11.7513 40.975C11.7513 37.3267 11.7513 33.6783 11.7513 30.0117C11.7513 29.6817 11.7696 29.3517 11.8429 29.04C12.1363 27.8483 13.1446 27.1333 14.4646 27.1333C20.4596 27.1333 26.4729 27.1333 32.4679 27.1333C32.6146 27.1333 32.7796 27.1333 32.9446 27.1333Z" fill="black"/>
<path d="M20.5328 11.6967C20.8628 11.2751 21.1011 10.9451 21.3578 10.6151C21.6511 10.2301 22.0728 10.1567 22.4028 10.4134C22.7511 10.6701 22.8061 11.1101 22.5128 11.5134C21.8161 12.4484 21.1378 13.3834 20.4228 14.3001C20.0378 14.7951 19.5245 14.7951 19.1395 14.3001C18.4428 13.3834 17.7461 12.4484 17.0495 11.5134C16.7561 11.1101 16.8111 10.6701 17.1595 10.4134C17.4895 10.1751 17.9111 10.2484 18.2228 10.6151C18.4795 10.9451 18.7361 11.2934 18.9561 11.5684C19.1578 10.8351 19.2861 10.0651 19.5795 9.36839C20.6795 6.76506 23.4661 5.39006 26.2528 6.01339C28.9295 6.60006 30.8361 9.05672 30.7811 11.8251C30.7261 14.6301 28.7278 16.9951 25.9595 17.4901C25.6295 17.5634 25.2995 17.6001 24.9695 17.6001C24.5111 17.6001 24.2178 17.3067 24.1995 16.9034C24.1811 16.4634 24.4561 16.1701 24.9328 16.1334C26.5828 16.0417 27.8661 15.3451 28.7278 13.9151C29.6261 12.3751 29.4795 10.3951 28.3611 9.00172C27.2428 7.59006 25.3728 7.00339 23.6495 7.51672C21.9261 8.03006 20.6795 9.57006 20.5145 11.3301C20.5328 11.4217 20.5328 11.4951 20.5328 11.6967Z" fill="black"/>
</svg>
