<svg width="44" height="44" viewBox="0 0 44 44" fill="none" xmlns="http://www.w3.org/2000/svg">
<g clip-path="url(#clip0_213_301)">
<path d="M25.5567 17.0133C25.5567 18.6999 25.5567 20.3133 25.5567 21.9999C25.7033 21.9999 25.8317 21.9999 25.9783 21.9999C27.7383 21.9999 29.4983 22.0183 31.2583 21.9816C31.4783 21.9816 31.7533 21.8716 31.9 21.7066C33.1467 20.4966 34.375 19.2499 35.6033 18.0033C35.805 17.8016 36.0067 17.7099 36.3 17.7283C37.3633 17.7466 38.4267 17.7283 39.49 17.7466C39.7283 17.7466 39.875 17.7099 40.0033 17.4533C40.48 16.5366 41.4333 16.1333 42.3867 16.3899C43.3217 16.6466 43.9817 17.4716 43.9817 18.4433C43.9817 19.3966 43.34 20.2399 42.405 20.4966C41.4517 20.7533 40.4983 20.3499 40.0033 19.4333C39.875 19.1949 39.7283 19.1399 39.49 19.1399C38.61 19.1583 37.7117 19.1216 36.8317 19.1583C36.63 19.1583 36.3733 19.2683 36.2267 19.4149C34.9617 20.6433 33.7333 21.9083 32.4867 23.1366C32.3217 23.2833 32.065 23.3933 31.845 23.3933C29.92 23.4116 27.995 23.4116 26.0883 23.4116C25.9233 23.4116 25.7767 23.4116 25.575 23.4116C25.575 23.8883 25.575 24.3283 25.575 24.8233C25.7033 24.8233 25.85 24.8233 25.9783 24.8233C30.47 24.8233 34.9617 24.8233 39.4533 24.8233C39.7283 24.8233 39.8933 24.7499 40.0217 24.4933C40.48 23.6316 41.47 23.2283 42.405 23.4849C43.34 23.7416 43.9817 24.5849 43.9817 25.5383C43.9817 26.4916 43.3217 27.3349 42.3867 27.5916C41.4517 27.8299 40.4983 27.4266 40.0217 26.5649C39.9117 26.3449 39.8017 26.2349 39.5267 26.2349C34.9433 26.2533 30.36 26.2349 25.7767 26.2349C25.7217 26.2349 25.6667 26.2349 25.575 26.2533C25.575 26.7116 25.575 27.1516 25.575 27.6649C25.7217 27.6649 25.8867 27.6649 26.0333 27.6649C27.9583 27.6649 29.8833 27.6649 31.79 27.6649C32.1017 27.6649 32.3033 27.7566 32.5233 27.9766C33.7333 29.2049 34.9617 30.4149 36.19 31.6616C36.3917 31.8633 36.5933 31.9549 36.8867 31.9366C37.7117 31.9183 38.5367 31.9183 39.3617 31.9366C39.6733 31.9366 39.875 31.8816 40.0583 31.5516C40.5717 30.6349 41.6533 30.2866 42.625 30.6533C43.5967 31.0199 44.165 32.0649 43.945 33.0366C43.725 34.0816 42.8083 34.7966 41.7633 34.7416C40.975 34.7049 40.3883 34.3199 40.0033 33.6416C39.875 33.3849 39.7283 33.3116 39.4533 33.3299C38.39 33.3483 37.3267 33.3299 36.2633 33.3483C35.97 33.3483 35.7683 33.2566 35.5667 33.0549C34.3567 31.8266 33.1283 30.6166 31.9 29.3699C31.68 29.1499 31.46 29.0766 31.1667 29.0766C29.2967 29.0949 27.445 29.0766 25.52 29.0766C25.52 29.2599 25.52 29.4249 25.52 29.6083C25.52 33.1283 25.52 36.6483 25.52 40.1683C25.52 42.5149 24.035 43.9999 21.7067 43.9999C15.73 43.9999 9.77167 43.9999 3.795 43.9999C1.485 43.9999 0 42.5149 0 40.1683C0 28.0683 0 15.9683 0 3.84994C0 1.48494 1.46667 -6.37525e-05 3.85 -6.37525e-05C9.64333 -6.37525e-05 15.4367 0.0182696 21.23 -0.0183971C22.825 -0.0367304 24.1817 0.329936 25.0617 1.75994C29.4067 -1.26506 34.485 -0.0733971 37.2717 2.9516C40.1683 6.0866 40.5717 10.7983 38.1883 14.3183C36.795 16.3899 34.87 17.7099 32.4317 18.2233C29.9933 18.7733 27.72 18.3149 25.5567 17.0133ZM1.41167 7.1316C1.41167 7.27827 1.41167 7.38827 1.41167 7.5166C1.41167 17.5266 1.41167 27.5183 1.41167 37.5283C1.41167 38.8483 2.31 39.7466 3.64833 39.7466C9.71667 39.7466 15.8033 39.7466 21.8717 39.7466C23.2283 39.7466 24.1083 38.8483 24.1083 37.4916C24.1083 30.4149 24.1083 23.3383 24.09 16.2616C24.09 16.0416 23.9617 15.7849 23.815 15.6199C23.045 14.7766 22.4033 13.8416 21.9633 12.7783C21.2117 10.9633 21.065 9.09327 21.505 7.14994C14.8317 7.1316 8.15833 7.1316 1.41167 7.1316ZM1.43 5.6466C1.50333 5.66494 1.50333 5.68327 1.52167 5.68327C8.25 5.68327 14.9967 5.68327 21.725 5.68327C21.8533 5.68327 22.0183 5.5366 22.0917 5.40827C22.66 4.6016 23.1733 3.75827 23.76 2.96994C23.925 2.74994 23.9067 2.6216 23.7783 2.43827C23.3017 1.72327 22.6233 1.42994 21.78 1.42994C16.4083 1.42994 11.0183 1.42994 5.64667 1.42994C4.93167 1.42994 4.19833 1.4116 3.48333 1.42994C2.42 1.4666 1.50333 2.2916 1.43 3.3366C1.39333 4.1066 1.43 4.8766 1.43 5.6466ZM24.1083 40.4616C23.43 40.9016 22.7517 41.1583 22 41.1583C15.8583 41.1583 9.69833 41.1766 3.55667 41.1399C2.97 41.1399 2.38333 40.8466 1.77833 40.6633C1.66833 40.6266 1.55833 40.5533 1.43 40.4799C1.485 41.7266 2.38333 42.5699 3.64833 42.5699C9.35 42.5699 15.0517 42.5699 20.7533 42.5699C21.175 42.5699 21.615 42.5883 22.0367 42.5699C23.1733 42.5333 24.0533 41.6716 24.1083 40.4616ZM27.6467 8.48827C29.59 8.48827 31.4417 8.48827 33.3667 8.48827C33.2567 7.53494 33.1467 6.61827 33.0367 5.71994C31.3133 5.71994 29.6633 5.71994 27.9767 5.71994C27.8667 6.6366 27.7567 7.55327 27.6467 8.48827ZM33.3667 9.97327C31.4233 9.97327 29.5717 9.97327 27.6467 9.97327C27.7567 10.9266 27.8667 11.8433 27.9767 12.7783C29.7 12.7783 31.3317 12.7783 33.0367 12.7783C33.1467 11.8433 33.2567 10.9266 33.3667 9.97327ZM22.7517 8.5066C23.925 8.5066 25.08 8.5066 26.235 8.5066C26.3267 7.5716 26.4183 6.65494 26.51 5.7016C25.575 5.7016 24.6583 5.7016 23.7417 5.7016C23.65 5.7016 23.5217 5.79327 23.485 5.88494C23.0817 6.6916 22.8067 7.5716 22.7517 8.5066ZM38.2617 8.5066C38.1883 7.5716 37.95 6.70994 37.5467 5.90327C37.51 5.8116 37.3817 5.7016 37.3083 5.7016C36.3733 5.68327 35.4567 5.7016 34.5033 5.7016C34.595 6.65494 34.6867 7.58994 34.7967 8.5066C35.9333 8.5066 37.0883 8.5066 38.2617 8.5066ZM22.7517 9.97327C22.8067 10.9083 23.0817 11.7699 23.4667 12.5766C23.5033 12.6683 23.6317 12.7783 23.705 12.7783C24.64 12.7966 25.5567 12.7783 26.51 12.7783C26.4183 11.8066 26.3267 10.8899 26.2167 9.95494C25.08 9.97327 23.9433 9.97327 22.7517 9.97327ZM38.39 9.97327C37.07 9.97327 35.915 9.97327 34.7783 9.97327C34.6867 10.9083 34.595 11.8249 34.5033 12.7783C35.4383 12.7783 36.3367 12.7783 37.235 12.7599C37.345 12.7599 37.5283 12.6499 37.5467 12.5399C37.84 11.7333 38.0967 10.8899 38.39 9.97327ZM28.38 4.25327C29.8283 4.25327 31.2033 4.25327 32.615 4.25327C32.3217 3.37327 32.01 2.54827 31.3683 1.9066C30.7633 1.28327 30.2133 1.28327 29.6083 1.9066C29.0033 2.54827 28.6733 3.37327 28.38 4.25327ZM28.38 14.2083C28.71 15.1433 29.0217 16.0049 29.7367 16.6649C30.2133 17.1049 30.6717 17.1599 31.13 16.7933C31.955 16.1333 32.3033 15.1799 32.6333 14.2083C31.185 14.2083 29.81 14.2083 28.38 14.2083ZM24.4933 4.2716C25.3 4.2716 25.9967 4.2716 26.6933 4.2716C26.7667 4.2716 26.895 4.19827 26.9133 4.12494C27.1883 3.42827 27.4633 2.71327 27.7383 1.9616C26.4917 2.43827 25.4283 3.1716 24.4933 4.2716ZM33.2383 1.94327C33.5317 2.69494 33.7883 3.3916 34.0633 4.06994C34.1 4.1616 34.2283 4.25327 34.3017 4.25327C34.9983 4.2716 35.695 4.25327 36.4833 4.25327C35.585 3.1716 34.5217 2.43827 33.2383 1.94327ZM27.775 16.5183C27.4817 15.7849 27.225 15.1249 26.9683 14.4466C26.9317 14.3549 26.84 14.2083 26.7667 14.2083C26.0517 14.1899 25.3183 14.1899 24.5117 14.1899C25.4467 15.3083 26.4917 16.0416 27.775 16.5183ZM36.5017 14.2083C35.9883 14.2083 35.6033 14.2083 35.2 14.2083C34.1733 14.2083 34.1733 14.2083 33.8067 15.1433C33.6233 15.6016 33.4217 16.0416 33.2017 16.5366C34.5217 16.0233 35.585 15.3083 36.5017 14.2083ZM42.57 18.4616C42.57 18.0766 42.24 17.7649 41.855 17.7649C41.47 17.7649 41.1583 18.0949 41.1583 18.4799C41.1583 18.8649 41.4883 19.1766 41.8733 19.1766C42.24 19.1583 42.57 18.8283 42.57 18.4616ZM42.57 25.5566C42.57 25.1716 42.2583 24.8416 41.8733 24.8416C41.4883 24.8416 41.1583 25.1533 41.1583 25.5383C41.1583 25.9233 41.47 26.2533 41.855 26.2533C42.24 26.2716 42.5517 25.9416 42.57 25.5566ZM42.57 32.6516C42.57 32.2666 42.2583 31.9366 41.8733 31.9366C41.4883 31.9366 41.1583 32.2483 41.1583 32.6333C41.1583 33.0183 41.47 33.3483 41.855 33.3483C42.24 33.3666 42.5517 33.0366 42.57 32.6516Z" fill="black"/>
<path d="M12.7417 22.7148C10.7984 22.7148 8.87338 22.7332 6.93005 22.7148C4.98671 22.6782 3.26338 21.2115 2.91504 19.3232C2.54838 17.3248 3.52004 15.3815 5.33505 14.6115C5.83005 14.4098 6.06838 14.1165 6.28838 13.6582C7.48005 11.2198 9.46005 9.93651 12.155 9.97318C14.85 10.0098 16.775 11.3482 17.8934 13.7865C18.04 14.1165 18.1867 14.2082 18.535 14.2082C20.8267 14.2265 22.6784 16.1332 22.6967 18.4248C22.715 20.7165 20.8817 22.6598 18.59 22.6965C16.6467 22.7515 14.7034 22.7148 12.7417 22.7148ZM17.0317 15.7665C16.995 15.6015 16.9217 15.3265 16.8484 15.0515C16.2617 12.8698 14.3367 11.3848 12.1 11.3665C9.84504 11.3482 7.88338 12.8332 7.29671 15.0332C7.18671 15.4732 7.00338 15.6382 6.56338 15.7115C5.09671 15.9682 4.14338 17.2698 4.27171 18.7182C4.40004 20.1482 5.61004 21.2665 7.07671 21.2848C7.57171 21.3032 8.08504 21.2848 8.58004 21.2848C11.88 21.2848 15.18 21.2848 18.4617 21.2848C19.9284 21.2848 21.1384 20.1665 21.2667 18.7182C21.4134 17.3065 20.46 15.9315 19.03 15.6932C18.4067 15.6015 17.7467 15.7482 17.0317 15.7665Z" fill="black"/>
<path d="M18.205 26.4183C17.8567 26.7483 17.545 27.06 17.2334 27.3533C14.5017 24.7683 10.56 25.0983 8.2317 27.3533C7.9017 27.0417 7.5717 26.73 7.2417 26.4183C9.9917 23.485 15.1617 23.2833 18.205 26.4183Z" fill="black"/>
<path d="M14.8319 31.9365C14.8319 33.1282 13.8786 34.0815 12.6869 34.0632C11.5319 34.0448 10.5786 33.0915 10.5786 31.9365C10.5786 30.7631 11.5503 29.8098 12.7236 29.8098C13.9153 29.8281 14.8319 30.7631 14.8319 31.9365ZM13.4203 31.9548C13.4203 31.5698 13.1269 31.2398 12.7419 31.2398C12.3569 31.2398 12.0269 31.5515 12.0269 31.9365C12.0269 32.3215 12.3386 32.6515 12.7236 32.6515C13.0903 32.6515 13.4019 32.3398 13.4203 31.9548Z" fill="black"/>
<path d="M9.95508 36.9233C12.3017 36.9233 14.6301 36.9233 16.9951 36.9233C16.9951 37.3633 16.9951 37.8217 16.9951 38.2983C14.6667 38.2983 12.3201 38.2983 9.95508 38.2983C9.95508 37.8583 9.95508 37.4183 9.95508 36.9233Z" fill="black"/>
<path d="M10.2302 29.425C9.88186 29.0584 9.57019 28.7467 9.27686 28.435C10.9085 26.51 14.3735 26.4917 16.1702 28.3984C15.8585 28.71 15.5285 29.0217 15.1802 29.37C14.5202 28.765 13.6952 28.3984 12.7235 28.3984C11.7702 28.3984 10.9452 28.7467 10.2302 29.425Z" fill="black"/>
<path d="M17.0132 2.87817C17.0132 3.35484 17.0132 3.77651 17.0132 4.25317C14.1899 4.25317 11.3849 4.25317 8.56152 4.25317C8.56152 3.81317 8.56152 3.37317 8.56152 2.87817C11.3482 2.87817 14.1532 2.87817 17.0132 2.87817Z" fill="black"/>
<path d="M3.53846 2.85986C3.92346 2.85986 4.25346 3.17153 4.25346 3.55653C4.25346 3.94153 3.9418 4.27153 3.5568 4.27153C3.1718 4.27153 2.8418 3.95986 2.8418 3.57486C2.8418 3.18986 3.15346 2.85986 3.53846 2.85986Z" fill="black"/>
</g>
<defs>
<clipPath id="clip0_213_301">
<rect width="43.9817" height="44" fill="white"/>
</clipPath>
</defs>
</svg>
