<svg width="45" height="44" viewBox="0 0 45 44" fill="none" xmlns="http://www.w3.org/2000/svg">
<g clip-path="url(#clip0_213_51)">
<path d="M0.109863 0.0916748C14.788 0.0916748 29.4661 0.0916748 44.1443 0.0916748C44.1443 14.7583 44.1443 29.425 44.1443 44.0917C29.4661 44.0917 14.788 44.0917 0.109863 44.0917C0.109863 29.425 0.109863 14.7583 0.109863 0.0916748ZM2.73358 13.0533C2.73358 22.55 2.73358 32.01 2.73358 41.47C15.687 41.47 28.6038 41.47 41.5389 41.47C41.5389 31.9917 41.5389 22.5317 41.5389 13.0533C28.5854 13.0533 15.6687 13.0533 2.73358 13.0533ZM2.71523 10.395C15.6687 10.395 28.6038 10.395 41.5205 10.395C41.5205 7.81001 41.5205 5.24334 41.5205 2.69501C28.5671 2.69501 15.6503 2.69501 2.71523 2.69501C2.71523 5.26167 2.71523 7.81001 2.71523 10.395Z" fill="black"/>
<path d="M25.3563 18.48C24.0536 24.53 22.7692 30.5433 21.4665 36.5933C20.6226 36.41 19.8153 36.245 18.9346 36.0617C20.2373 30.03 21.5216 23.9983 22.8243 17.9483C23.6866 18.1133 24.4939 18.2967 25.3563 18.48Z" fill="black"/>
<path d="M16.531 32.7617C15.9071 33.385 15.32 33.9717 14.7512 34.54C12.3293 32.12 9.8891 29.6817 7.50391 27.2983C9.90745 24.8967 12.366 22.44 14.7696 20.0383C15.2833 20.57 15.8888 21.1567 16.4759 21.7617C14.6962 23.5217 12.8431 25.3733 10.99 27.2433C12.8798 29.1133 14.7145 30.965 16.531 32.7617Z" fill="black"/>
<path d="M27.7051 21.7983C28.3656 21.1383 28.9527 20.5517 29.5031 19.9833C31.925 22.4033 34.3836 24.86 36.8055 27.28C34.402 29.6817 31.9617 32.12 29.5765 34.5033C29.0078 33.935 28.4206 33.3483 27.8152 32.7433C29.5765 30.9833 31.4113 29.15 33.2461 27.3167C31.3563 25.4467 29.5215 23.6133 27.7051 21.7983Z" fill="black"/>
<path d="M13.0454 5.28C13.0454 6.16 13.0454 6.96666 13.0454 7.82833C12.1831 7.82833 11.3575 7.82833 10.4951 7.82833C10.4951 6.96666 10.4951 6.14167 10.4951 5.28C11.3575 5.28 12.1831 5.28 13.0454 5.28Z" fill="black"/>
<path d="M7.85278 5.28C7.85278 6.12333 7.85278 6.94833 7.85278 7.81C7.00879 7.81 6.18314 7.81 5.3208 7.81C5.3208 6.96667 5.3208 6.14167 5.3208 5.28C6.14645 5.28 6.97209 5.28 7.85278 5.28Z" fill="black"/>
<path d="M18.219 7.82834C17.375 7.82834 16.5494 7.82834 15.687 7.82834C15.687 6.98501 15.687 6.16001 15.687 5.29834C16.531 5.29834 17.3566 5.29834 18.219 5.29834C18.219 6.12334 18.219 6.94834 18.219 7.82834Z" fill="black"/>
</g>
<defs>
<clipPath id="clip0_213_51">
<rect width="44.0344" height="44" fill="white"/>
</clipPath>
</defs>
</svg>
