<svg width="762" height="510" viewBox="0 0 762 510" fill="none" xmlns="http://www.w3.org/2000/svg">
<path d="M3.45176 496.181H759.377V503.957C759.377 507.295 756.672 510 753.334 510H9.49435C6.15712 510 3.45176 507.295 3.45176 503.957V496.181Z" fill="#1B1B1B"/>
<mask id="path-2-inside-1_150_265" fill="white">
<path fill-rule="evenodd" clip-rule="evenodd" d="M1.94159 510C0.626791 508.472 0 506.474 0 504.3V25.0466C0 11.2137 11.204 0 25.0249 0H736.941C750.762 0 761.966 11.2137 761.966 25.0466V504.3C761.966 506.486 761.352 508.469 760.024 510"/>
</mask>
<path d="M3.2501 508.874C2.25594 507.719 1.72646 506.146 1.72646 504.3H-1.72646C-1.72646 506.802 -1.00235 509.226 0.633081 511.126L3.2501 508.874ZM1.72646 504.3V25.0466H-1.72646V504.3H1.72646ZM1.72646 25.0466C1.72646 12.1658 12.1589 1.72646 25.0249 1.72646V-1.72646C10.2491 -1.72646 -1.72646 10.2616 -1.72646 25.0466H1.72646ZM25.0249 1.72646H736.941V-1.72646H25.0249V1.72646ZM736.941 1.72646C749.807 1.72646 760.239 12.1658 760.239 25.0466H763.692C763.692 10.2616 751.717 -1.72646 736.941 -1.72646V1.72646ZM760.239 25.0466V504.3H763.692V25.0466H760.239ZM760.239 504.3C760.239 506.164 759.72 507.716 758.72 508.869L761.328 511.131C762.984 509.222 763.692 506.809 763.692 504.3H760.239Z" fill="#1B1B1B" mask="url(#path-2-inside-1_150_265)"/>
<path fill-rule="evenodd" clip-rule="evenodd" d="M758.717 508.869H760.024V510H757.422L758.717 508.869Z" fill="#1B1B1B"/>
<path fill-rule="evenodd" clip-rule="evenodd" d="M1.92855 508.869H3.23589L4.53028 510H1.92855V508.869Z" fill="#1B1B1B"/>
</svg>
