<svg width="44" height="44" viewBox="0 0 44 44" fill="none" xmlns="http://www.w3.org/2000/svg">
<g clip-path="url(#clip0_213_187)">
<path d="M44.0001 43.4868C43.7617 43.8901 43.4134 44.0001 42.9551 44.0001C37.7667 43.9818 32.5967 44.0001 27.4084 44.0001C26.6384 44.0001 26.3634 43.7618 26.3817 42.9735C26.4184 41.6535 26.3084 40.2785 26.565 38.9951C27.0784 36.3551 28.7834 34.6868 31.3867 33.9535C31.4784 33.9351 31.57 33.8985 31.68 33.8618C29.15 31.2768 29.92 27.8485 31.845 26.1801C33.8617 24.4568 36.8867 24.5485 38.7934 26.4368C40.6267 28.2335 41.0301 31.4968 38.6834 33.8618C38.8667 33.9168 39.0501 33.9535 39.2151 34.0085C41.8551 34.8885 43.4501 36.6668 43.9084 39.4351C43.9267 39.5085 43.9634 39.5635 43.9817 39.6368C44.0001 40.9018 44.0001 42.1851 44.0001 43.4868ZM27.8667 42.4968C32.78 42.4968 37.6384 42.4968 42.5151 42.4968C42.5151 41.6535 42.5517 40.8285 42.5151 40.0218C42.3684 37.4368 40.2601 35.3101 37.6751 35.2368C36.025 35.1818 34.3751 35.1818 32.7434 35.2368C30.965 35.2918 29.6267 36.1535 28.655 37.6385C27.6467 39.1235 27.8667 40.8101 27.8667 42.4968ZM38.8484 30.0485C38.8301 28.0501 37.1434 26.3635 35.1634 26.4001C33.1467 26.4368 31.515 28.1051 31.5334 30.0851C31.5517 32.1018 33.22 33.7518 35.2184 33.7151C37.2534 33.6968 38.8667 32.0468 38.8484 30.0485Z" fill="black"/>
<path d="M22.6053 0C23.467 0.183333 24.292 0.44 25.007 0.971667C27.5186 2.82333 27.867 6.34333 25.7403 8.635C25.667 8.70833 25.5936 8.8 25.5936 8.8C26.4186 9.22167 27.317 9.55167 28.087 10.0833C29.8103 11.3117 30.7086 13.035 30.782 15.1617C30.8186 16.17 30.8003 17.16 30.8003 18.1683C30.8003 18.7917 30.5253 19.0667 29.902 19.0667C24.6403 19.0667 19.3603 19.0667 14.0986 19.0667C13.567 19.0667 13.237 18.8283 13.237 18.3883C13.237 17.0133 13.127 15.62 13.347 14.2817C13.787 11.5317 15.492 9.80833 18.1503 9.02C18.2603 8.98333 18.3703 8.94667 18.3886 8.94667C18.0036 8.28667 17.5086 7.66333 17.2336 6.96667C16.0236 3.97833 17.967 0.605 21.157 0.0733333C21.2303 0.055 21.322 0.0183333 21.3953 0C21.7986 0 22.202 0 22.6053 0ZM14.667 17.5817C19.5803 17.5817 24.4203 17.5817 29.3153 17.5817C29.3153 16.7383 29.3336 15.9317 29.3153 15.125C29.2236 12.595 27.1336 10.4317 24.6036 10.3033C22.8986 10.23 21.1753 10.23 19.452 10.3033C17.4903 10.395 16.0786 11.44 15.1803 13.1817C14.4653 14.575 14.722 16.0783 14.667 17.5817ZM22.0186 8.78167C24.0353 8.76333 25.6853 7.095 25.667 5.115C25.6303 3.09833 23.962 1.44833 21.982 1.46667C19.9836 1.485 18.3153 3.17167 18.3336 5.15167C18.3703 7.16833 20.0203 8.8 22.0186 8.78167Z" fill="black"/>
<path d="M5.31674 33.8433C2.9334 31.4416 3.3734 28.1599 5.22507 26.3816C7.1684 24.5116 10.1751 24.4566 12.1734 26.1983C14.0617 27.8299 14.8501 31.2583 12.3751 33.7883C13.0534 34.0999 13.8051 34.3383 14.4467 34.7416C16.4084 35.9516 17.4534 37.7483 17.5817 40.0583C17.6367 41.0849 17.6184 42.1116 17.6001 43.1566C17.6001 43.7249 17.3067 43.9999 16.7201 43.9999C11.4584 43.9999 6.1784 43.9999 0.916736 43.9999C0.348403 43.9999 0.0184028 43.7433 0.0184028 43.2483C0.0184028 41.9833 -0.0365972 40.6999 0.110069 39.4349C0.38507 36.8316 2.40174 34.5949 4.95007 33.9533C5.04174 33.9166 5.15174 33.8799 5.31674 33.8433ZM16.0784 42.5149C16.0784 41.5249 16.1517 40.5899 16.0601 39.6549C15.8217 37.2716 13.7317 35.3099 11.3301 35.2366C9.66174 35.1816 7.97507 35.1999 6.30674 35.2366C4.93174 35.2733 3.79507 35.8599 2.86007 36.8316C1.2834 38.4633 1.41174 40.4799 1.48507 42.5149C6.38007 42.5149 11.2201 42.5149 16.0784 42.5149ZM8.80007 33.7149C10.7984 33.7149 12.4667 32.0466 12.4484 30.0483C12.4484 28.0499 10.7801 26.3816 8.78174 26.3816C6.7834 26.3816 5.1334 28.0499 5.1334 30.0483C5.15174 32.0833 6.80174 33.7333 8.80007 33.7149Z" fill="black"/>
<path d="M34.76 10.6149C34.43 10.2482 34.1366 9.93657 33.8066 9.5699C34.0816 9.25824 34.3933 8.9099 34.7416 8.5249C35.0716 8.9099 35.3833 9.27657 35.7316 9.6799C35.475 9.93657 35.145 10.2666 34.76 10.6149Z" fill="black"/>
<path d="M3.08021 25.0068C3.04355 24.4934 3.00688 24.0168 2.97021 23.5034C3.46521 23.5034 3.92355 23.5034 4.43688 23.5034C4.47355 23.9068 4.51021 24.3468 4.54688 24.8234C4.03355 24.8968 3.57521 24.9518 3.08021 25.0068Z" fill="black"/>
<path d="M29.6267 5.26172C30.1034 5.50005 30.525 5.70172 31.0017 5.92172C30.7634 6.36172 30.5434 6.76505 30.305 7.20505C29.8834 7.00338 29.48 6.80172 29.04 6.60005C29.2417 6.14172 29.425 5.72005 29.6267 5.26172Z" fill="black"/>
<path d="M35.6948 11.6784C36.0982 11.3484 36.4465 11.0734 36.8315 10.7617C37.1248 11.1651 37.4182 11.5501 37.7298 11.9717C37.3265 12.2467 36.9415 12.5034 36.5198 12.7967C36.2632 12.4301 35.9882 12.0817 35.6948 11.6784Z" fill="black"/>
<path d="M40.3331 17.4717C39.8564 17.6184 39.4164 17.7467 38.9398 17.8751C38.7931 17.4351 38.6464 17.0134 38.4814 16.5551C38.9398 16.3901 39.3614 16.2251 39.8381 16.0417C40.0031 16.5001 40.1498 16.9584 40.3331 17.4717Z" fill="black"/>
<path d="M3.66669 17.4717C4.16169 17.6183 4.60169 17.7283 5.07836 17.875C4.96836 18.3333 4.85836 18.755 4.74836 19.2317C4.27169 19.14 3.83169 19.0483 3.31836 18.9567C3.42836 18.4617 3.53836 18.0033 3.66669 17.4717Z" fill="black"/>
<path d="M12.9984 5.92163C13.2368 6.37996 13.4568 6.76496 13.6951 7.20496C13.2918 7.4433 12.9068 7.68163 12.4851 7.91996C12.2284 7.51663 11.9718 7.13163 11.6968 6.69163C12.1368 6.43496 12.5584 6.1783 12.9984 5.92163Z" fill="black"/>
<path d="M31.5151 7.91998C31.7901 7.49832 32.0468 7.09498 32.3218 6.69165C32.7435 6.98498 33.1285 7.25998 33.5685 7.57165C33.2751 7.97498 32.9818 8.34165 32.6885 8.72665C32.2851 8.46998 31.9185 8.21332 31.5151 7.91998Z" fill="black"/>
<path d="M11.33 8.72653C10.9633 9.01987 10.615 9.3132 10.2483 9.62487C9.9183 9.2582 9.60663 8.90987 9.2583 8.5432C9.66163 8.2132 10.0466 7.90153 10.45 7.57153C10.7433 7.95653 11.0183 8.34153 11.33 8.72653Z" fill="black"/>
<path d="M37.272 13.9882C37.712 13.7316 38.097 13.5115 38.537 13.2549C38.7753 13.6949 38.9953 14.1166 39.252 14.5932C38.812 14.7949 38.3903 14.9966 37.932 15.2166C37.712 14.8316 37.5103 14.4282 37.272 13.9882Z" fill="black"/>
<path d="M25.5017 39.9851C25.5934 40.4618 25.7034 40.9018 25.7951 41.3968C25.3001 41.4884 24.8417 41.5618 24.3101 41.6534C24.2367 41.1768 24.1817 40.7184 24.1084 40.2051C24.5851 40.1318 25.0251 40.0584 25.5017 39.9851Z" fill="black"/>
<path d="M5.44482 13.255C5.71982 12.815 5.97649 12.4117 6.25149 11.9717C6.67316 12.2467 7.05816 12.5217 7.46149 12.7967C7.20482 13.2 6.98482 13.5667 6.70982 13.9883C6.28816 13.75 5.88482 13.5117 5.44482 13.255Z" fill="black"/>
<path d="M40.9201 20.4601C40.4067 20.5151 39.9667 20.5701 39.4717 20.6434C39.3984 20.1851 39.3251 19.7451 39.2334 19.2684C39.7101 19.1768 40.1684 19.0851 40.6634 18.9751C40.7734 19.4701 40.8467 19.9284 40.9201 20.4601Z" fill="black"/>
<path d="M3.06166 20.46C3.57499 20.515 4.01499 20.57 4.50999 20.6433C4.47333 21.1016 4.45499 21.5416 4.41833 21.9816C3.92333 21.9816 3.46499 21.9816 2.95166 21.9816C2.98833 21.4683 3.02499 20.9916 3.06166 20.46Z" fill="black"/>
<path d="M18.2417 41.4151C18.3334 40.9201 18.425 40.4984 18.535 40.0034C18.9934 40.0768 19.4334 40.1318 19.91 40.2051C19.855 40.7001 19.8 41.1584 19.745 41.6534C19.2317 41.5801 18.755 41.5068 18.2417 41.4151Z" fill="black"/>
<path d="M22.7154 41.7632C22.2387 41.7632 21.7804 41.7632 21.3037 41.7632C21.3037 41.2866 21.3037 40.8099 21.3037 40.3333C21.7804 40.3333 22.2204 40.3333 22.7154 40.3333C22.7154 40.7916 22.7154 41.2499 22.7154 41.7632Z" fill="black"/>
<path d="M8.30512 11.66C7.92012 11.3484 7.57179 11.0734 7.16846 10.7434C7.49846 10.3584 7.82846 9.99169 8.17679 9.60669C8.54346 9.95502 8.87346 10.2667 9.24012 10.615C8.92846 10.9817 8.61679 11.3117 8.30512 11.66Z" fill="black"/>
<path d="M4.16162 16.0232C4.36329 15.5282 4.56495 15.0882 4.74829 14.6116C5.18829 14.8316 5.60995 15.0332 6.06829 15.2349C5.88495 15.6749 5.71995 16.0782 5.51829 16.5182C5.07829 16.3716 4.63829 16.2066 4.16162 16.0232Z" fill="black"/>
<path d="M41.0303 23.4483C40.5353 23.4483 40.077 23.4483 39.6187 23.4483C39.6187 22.9716 39.6187 22.5316 39.6187 22.0549C40.077 22.0549 40.5353 22.0549 41.0303 22.0549C41.0303 22.4949 41.0303 22.9533 41.0303 23.4483Z" fill="black"/>
</g>
<defs>
<clipPath id="clip0_213_187">
<rect width="44" height="44" fill="white"/>
</clipPath>
</defs>
</svg>
