<svg width="44" height="44" viewBox="0 0 44 44" fill="none" xmlns="http://www.w3.org/2000/svg">
<path d="M44 22.0733C44 27.885 44 33.6967 44 39.5083C44 42.405 42.4233 43.9817 39.5083 43.9817C27.8483 43.9817 16.17 43.9817 4.51 43.9817C1.57667 44 0 42.4233 0 39.5267C0 27.83 0 16.115 0 4.41833C0 1.595 1.595 0 4.43667 0C16.1333 0 27.8483 0 39.545 0C42.3867 0 44 1.595 44 4.41833C44 10.3033 44 16.1883 44 22.0733ZM2.16333 21.9817C2.16333 27.61 2.16333 33.2383 2.16333 38.8667C2.16333 41.3233 2.67667 41.8367 5.09667 41.8367C16.3533 41.8367 27.61 41.8367 38.8667 41.8367C41.25 41.8367 41.855 41.25 41.855 38.885C41.855 27.555 41.855 16.225 41.855 4.895C41.855 2.76833 41.2683 2.16333 39.1417 2.16333C27.7383 2.16333 16.335 2.16333 4.93167 2.16333C2.78667 2.16333 2.2 2.75 2.2 4.87667C2.16333 10.5783 2.16333 16.28 2.16333 21.9817Z" fill="black"/>
<path d="M11.0548 17.9116C11.4214 17.9116 11.6964 18.095 11.9714 18.2966C14.4098 20.13 16.8664 21.9633 19.2864 23.815C20.3681 24.64 20.3498 25.3183 19.2864 26.125C16.8848 27.9583 14.4648 29.755 12.0631 31.57C11.4398 32.0283 10.7981 32.3583 10.2298 31.5883C9.6431 30.8183 10.1564 30.2683 10.7431 29.81C12.4298 28.5266 14.1348 27.2433 15.8214 25.96C17.1598 24.9333 17.1598 24.9333 15.8398 23.9433C14.2081 22.715 12.5581 21.4866 10.9264 20.24C10.6331 20.02 10.3214 19.7633 10.1381 19.47C9.6981 18.755 10.2298 17.9116 11.0548 17.9116Z" fill="black"/>
<path d="M23.9616 34.1001C23.1 34.1001 22.2566 34.1184 21.395 34.1001C20.6616 34.0817 20.0016 33.8434 19.9833 32.9817C19.965 32.1384 20.5883 31.8267 21.34 31.8267C23.1366 31.8084 24.915 31.8084 26.7116 31.8267C27.445 31.8451 28.0866 32.1384 28.0683 32.9817C28.05 33.8251 27.39 34.0634 26.6566 34.0817C25.74 34.1184 24.8416 34.1001 23.9616 34.1001Z" fill="black"/>
</svg>
